<?xml version="1.0" encoding="UTF-8"?>
<!-- Generated by jsxcad -->
<!DOCTYPE svg PUBLIC "-//W3C//DTD SVG 1.1 Tiny//EN" "http://www.w3.org/Graphics/SVG/1.1/DTD/svg11-tiny.dtd">
<svg baseProfile="tiny" height="62.52471026749991mm" width="66.20000000000002mm" viewBox="-33.10000000000001 -51.48051087168146 66.20000000000002 62.52471026749991" version="1.1" stroke="black" stroke-width=".1" fill="none" xmlns="http://www.w3.org/2000/svg">
<path fill="#000000" stroke="#000000" d="M7.233962264150942 12.351589566772018 L1.826705121831975 13.96016414283423 L7.233962264150942 10.938391597228872 z"/>
<path fill="#000000" stroke="#000000" d="M7.233962264150941 10.938391597228875 L1.826705121831975 13.960164142834234 L0.37365046793211976 14.19484456836861 z"/>
<path fill="#000000" stroke="#000000" d="M7.233962264150942 12.351589566772022 L7.233962264150942 10.938391597228872 L21.23396226415094 6.692706318041055 L21.23396226415094 8.105904287584206 z"/>
<path fill="#000000" stroke="#000000" d="M0.3736504679321198 14.194844568368612 L-1.1126046697815746 14.116030904183072 L-2.728301886792452 11.552547329438434 z"/>
<path fill="#000000" stroke="#000000" d="M-2.728301886792449 11.552547329438434 L-4.944154131125641 11.19398879623415 L-3.5962264150943364 4.5031076205982865 z"/>
<path fill="#000000" stroke="#000000" d="M-4.50484433951209 12.20177817004199 L-4.94415413112564 11.19398879623415 L-2.72830188679245 11.552547329438434 z"/>
<path fill="#000000" stroke="#000000" d="M-3.596226415094334 4.503107620598287 L-4.9441541311256385 11.193988796234148 L-4.9441541311256385 10.139344537099188 z"/>
<path fill="#000000" stroke="#000000" d="M-2.728301886792452 11.552547329438434 L7.233962264150942 10.938391597228877 L0.3736504679321198 14.19484456836861 z"/>
<path fill="#000000" stroke="#000000" d="M-3.5962264150943386 5.916305590141431 L10.40377358490566 1.6706203109536149 L10.40377358490566 0.257422341410464 L-3.5962264150943386 4.50310762059828 z"/>
<path fill="#000000" stroke="#000000" d="M-1.1126046697815746 14.116030904183072 L-2.500000000000001 13.730726090208567 L-2.7283018867924524 11.552547329438433 z"/>
<path fill="#000000" stroke="#000000" d="M10.40377358490566 0.2574223414104608 L10.40377358490566 1.6706203109536102 L20.36603773584905 1.0564645787440523 L20.36603773584905 -0.3567333907990971 z"/>
<path fill="#000000" stroke="#000000" d="M-3.665259359149126 13.07316615004906 L-4.504844339512096 12.201778170041989 L-2.728301886792447 11.552547329438434 z"/>
<path fill="#000000" stroke="#000000" d="M21.233962264150943 8.105904287584206 L21.233962264150943 6.6927063180410595 L20.366037735849055 -0.35673339079908745 L20.366037735849055 1.0564645787440596 z"/>
<path fill="#000000" stroke="#000000" d="M-2.7283018867924524 11.552547329438434 L-2.500000000000001 13.730726090208567 L-3.6652593591491325 13.073166150049058 z"/>
<path fill="#000000" stroke="#000000" d="M10.403773584905661 0.25742234141047043 L20.366037735849055 -0.3567333907990875 L21.233962264150943 6.6927063180410595 L7.233962264150943 10.938391597228875 L-2.7283018867924524 11.552547329438434 L-3.5962264150943395 4.503107620598287 z"/>
<path fill="#000000" stroke="#000000" d="M21.233962264150943 8.105904287584208 L20.366037735849055 1.0564645787440594 L10.403773584905661 1.6706203109536175 L-3.5962264150943395 5.916305590141435 L-4.944154131125643 10.13934453709919 L-4.944154131125643 11.193988796234148 L-4.504844339512096 12.201778170041989 L-3.6652593591491325 13.07316615004906 L-2.5000000000000018 13.730726090208565 L-1.1126046697815748 14.116030904183072 L0.37365046793211987 14.194844568368612 L1.8267051218319752 13.960164142834234 L7.233962264150943 12.351589566772022 z"/>
<path fill="#000000" stroke="#000000" d="M-3.5962264150943395 4.503107620598287 L-4.944154131125643 10.13934453709919 L-3.5962264150943395 5.916305590141434 z"/>
<path fill="#3c3c3c" stroke="#3c3c3c" d="M32.8906639111535 8.7083571558742 L32.8906639111535 9.874245480747298 L33.099999999999994 10.66666666666667 L33.099999999999994 9.500778341793573 z"/>
<path fill="#3c3c3c" stroke="#3c3c3c" d="M32.290927643384045 8.022956842070613 L32.290927643384045 9.188845166943707 L32.8906639111535 9.874245480747296 L32.8906639111535 8.7083571558742 z"/>
<path fill="#3c3c3c" stroke="#3c3c3c" d="M30.28603191433623 7.316531809082215 L30.28603191433623 8.482420133955317 L31.381788902907264 8.703032835569324 L31.381788902907264 7.537144510696224 z"/>
<path fill="#3c3c3c" stroke="#3c3c3c" d="M29.151644730776535 7.390913705038734 L29.151644730776535 8.556802029911838 L30.286031914336235 8.48242013395532 L30.286031914336235 7.316531809082215 z"/>
<path fill="#3c3c3c" stroke="#3c3c3c" d="M31.38178890290727 7.537144510696233 L31.381788902907267 8.703032835569328 L32.29092764338404 9.18884516694371 L32.290927643384045 8.022956842070615 z"/>
<path fill="#3c3c3c" stroke="#3c3c3c" d="M28.131832627224302 7.750244511352546 L28.131832627224302 8.91613283622564 L29.151644730776535 8.556802029911836 L29.151644730776535 7.390913705038743 z"/>
<path fill="#3c3c3c" stroke="#3c3c3c" d="M26.9527833909799 9.09770465332021 L26.952783390979903 10.263592978193307 L27.36432687923819 9.511882936383317 L27.36432687923819 8.345994611510221 z"/>
<path fill="#3c3c3c" stroke="#3c3c3c" d="M26.952783390979903 9.903852030266938 L26.952783390979903 11.069740355140034 L26.952783390979903 10.263592978193307 L26.952783390979903 9.09770465332021 z"/>
<path fill="#3c3c3c" stroke="#3c3c3c" d="M27.36432687923819 8.34599461151022 L27.36432687923819 9.511882936383316 L28.131832627224302 8.916132836225643 L28.131832627224302 7.750244511352546 z"/>
<path fill="#3c3c3c" stroke="#3c3c3c" d="M27.364326879238195 10.655562072076927 L27.364326879238195 11.821450396950024 L26.952783390979906 11.069740355140034 L26.952783390979903 9.903852030266938 z"/>
<path fill="#3c3c3c" stroke="#3c3c3c" d="M28.131832627224306 11.251312172234602 L28.131832627224306 12.4172004971077 L27.364326879238195 11.821450396950025 L27.3643268792382 10.655562072076927 z"/>
<path fill="#3c3c3c" stroke="#3c3c3c" d="M29.151644730776543 11.610642978548402 L29.151644730776543 12.776531303421494 L28.131832627224302 12.417200497107691 L28.131832627224302 11.251312172234599 z"/>
<path fill="#3c3c3c" stroke="#3c3c3c" d="M30.28603191433623 11.685024874504917 L30.28603191433623 12.850913199378018 L29.15164473077654 12.7765313034215 L29.15164473077654 11.610642978548398 z"/>
<path fill="#3c3c3c" stroke="#3c3c3c" d="M31.381788902907264 11.464412172890913 L31.381788902907264 12.630300497764006 L30.286031914336228 12.850913199378015 L30.286031914336228 11.685024874504922 z"/>
<path fill="#3c3c3c" stroke="#3c3c3c" d="M32.29092764338404 10.978599841516534 L32.29092764338404 12.14448816638963 L31.381788902907264 12.630300497764013 L31.381788902907267 11.464412172890917 z"/>
<path fill="#3c3c3c" stroke="#3c3c3c" d="M33.099999999999994 9.500778341793573 L33.099999999999994 10.66666666666667 L32.8906639111535 11.45908785258604 L32.8906639111535 10.293199527712943 z"/>
<path fill="#3c3c3c" stroke="#3c3c3c" d="M32.8906639111535 10.293199527712945 L32.890663911153496 11.45908785258604 L32.29092764338404 12.14448816638963 L32.29092764338404 10.978599841516534 z"/>
<path fill="#3c3c3c" stroke="#3c3c3c" d="M32.8906639111535 8.7083571558742 L33.099999999999994 9.500778341793573 L32.8906639111535 10.293199527712943 L32.29092764338404 10.978599841516534 L31.381788902907267 11.464412172890917 L30.286031914336235 11.685024874504926 L29.151644730776543 11.610642978548405 L28.131832627224306 11.251312172234602 L27.364326879238195 10.655562072076927 L26.952783390979903 9.903852030266938 L26.952783390979903 9.09770465332021 L27.364326879238195 8.345994611510221 L28.131832627224302 7.7502445113525456 L29.151644730776543 7.3909137050387415 L30.286031914336235 7.316531809082223 L31.381788902907267 7.537144510696231 L32.29092764338404 8.022956842070611 z"/>
<path fill="#3c3c3c" stroke="#3c3c3c" d="M32.8906639111535 9.874245480747298 L32.29092764338404 9.18884516694371 L31.381788902907267 8.703032835569326 L30.286031914336235 8.482420133955317 L29.151644730776543 8.556802029911838 L28.131832627224302 8.916132836225641 L27.364326879238195 9.511882936383317 L26.952783390979903 10.263592978193305 L26.952783390979903 11.069740355140034 L27.364326879238195 11.821450396950024 L28.131832627224306 12.4172004971077 L29.151644730776543 12.776531303421503 L30.286031914336235 12.85091319937802 L31.381788902907267 12.630300497764011 L32.29092764338404 12.14448816638963 L32.8906639111535 11.459087852586041 L33.099999999999994 10.66666666666667 z"/>
<path fill="#3c3c3c" stroke="#3c3c3c" d="M31.515544456622766 10.047504230118447 L31.515544456622766 31.24547377326565 L31.75 31.86463620981387 L31.749999999999996 10.66666666666667 z"/>
<path fill="#3c3c3c" stroke="#3c3c3c" d="M30.875000000000004 9.594245868427006 L30.875 30.79221541157421 L31.515544456622766 31.245473773265655 L31.515544456622766 10.047504230118449 z"/>
<path fill="#3c3c3c" stroke="#3c3c3c" d="M29.999999999999996 9.428341793570215 L29.999999999999996 30.62631133671743 L30.874999999999993 30.79221541157421 L30.874999999999993 9.594245868426999 z"/>
<path fill="#3c3c3c" stroke="#3c3c3c" d="M29.124999999999996 9.594245868427008 L29.124999999999996 30.79221541157421 L29.999999999999993 30.62631133671743 L29.999999999999993 9.428341793570224 z"/>
<path fill="#3c3c3c" stroke="#3c3c3c" d="M28.48445554337723 10.047504230118449 L28.48445554337723 31.245473773265655 L29.124999999999993 30.792215411574208 L29.124999999999993 9.594245868427006 z"/>
<path fill="#3c3c3c" stroke="#3c3c3c" d="M28.249999999999996 10.66666666666667 L28.249999999999996 31.864636209813877 L28.48445554337723 31.24547377326565 L28.48445554337723 10.047504230118445 z"/>
<path fill="#3c3c3c" stroke="#3c3c3c" d="M28.48445554337723 11.285829103214892 L28.48445554337723 32.4837986463621 L28.25 31.864636209813874 L28.25 10.66666666666667 z"/>
<path fill="#3c3c3c" stroke="#3c3c3c" d="M30.874999999999993 11.73908746490633 L30.874999999999993 32.93705700805352 L29.999999999999993 33.102961082910305 L29.999999999999993 11.904991539763111 z"/>
<path fill="#3c3c3c" stroke="#3c3c3c" d="M29.124999999999996 11.739087464906335 L29.125 32.937057008053536 L28.48445554337723 32.4837986463621 L28.484455543377234 11.285829103214892 z"/>
<path fill="#3c3c3c" stroke="#3c3c3c" d="M29.999999999999996 11.904991539763111 L29.999999999999996 33.10296108291032 L29.124999999999993 32.937057008053536 L29.124999999999993 11.739087464906328 z"/>
<path fill="#3c3c3c" stroke="#3c3c3c" d="M31.515544456622766 11.285829103214896 L31.515544456622763 32.4837986463621 L30.874999999999993 32.937057008053536 L30.874999999999996 11.739087464906335 z"/>
<path fill="#3c3c3c" stroke="#3c3c3c" d="M31.749999999999996 10.66666666666667 L31.749999999999996 31.864636209813874 L31.515544456622766 32.4837986463621 L31.515544456622766 11.285829103214894 z"/>
<path fill="#3c3c3c" stroke="#3c3c3c" d="M31.515544456622766 10.047504230118445 L31.75 10.666666666666668 L31.515544456622766 11.285829103214894 L30.874999999999996 11.739087464906335 L29.999999999999996 11.904991539763115 L29.124999999999996 11.739087464906333 L28.48445554337723 11.285829103214892 L28.25 10.666666666666668 L28.48445554337723 10.047504230118445 L29.125 9.594245868427004 L30 9.428341793570223 L30.875 9.594245868427004 z"/>
<path fill="#3c3c3c" stroke="#3c3c3c" d="M31.75 31.864636209813874 L31.515544456622766 31.245473773265655 L30.875 30.79221541157421 L30 30.62631133671743 L29.125 30.79221541157421 L28.48445554337723 31.245473773265655 L28.25 31.864636209813874 L28.48445554337723 32.4837986463621 L29.124999999999996 32.937057008053536 L29.999999999999996 33.10296108291032 L30.874999999999996 32.937057008053536 L31.515544456622766 32.4837986463621 z"/>
<path fill="#3c3c3c" stroke="#3c3c3c" d="M15.494125499544609 -11.044199395818463 L15.494125499544609 -9.878311070945356 L16.568368479467257 -9.609896880886252 L16.568368479467257 -10.775785205759357 z"/>
<path fill="#3c3c3c" stroke="#3c3c3c" d="M14.355396560298365 -11.019890465602161 L14.355396560298365 -9.854002140729058 L15.494125499544607 -9.878311070945353 L15.494125499544607 -11.044199395818456 z"/>
<path fill="#3c3c3c" stroke="#3c3c3c" d="M12.48758618766287 -10.145325951808081 L12.48758618766287 -8.979437626934985 L13.305973314888606 -9.540253145963502 L13.305973314888604 -10.706141470836599 z"/>
<path fill="#3c3c3c" stroke="#3c3c3c" d="M12.01076289499261 -9.413185151947454 L12.01076289499261 -8.247296827074356 L12.487586187662869 -8.979437626934983 L12.487586187662869 -10.145325951808077 z"/>
<path fill="#3c3c3c" stroke="#3c3c3c" d="M13.305973314888606 -10.706141470836613 L13.305973314888606 -9.54025314596351 L14.355396560298363 -9.85400214072906 L14.355396560298363 -11.019890465602163 z"/>
<path fill="#3c3c3c" stroke="#3c3c3c" d="M11.939901064722022 -8.608598743208125 L11.939901064722022 -7.4427104183350306 L12.010762894992611 -8.247296827074356 L12.010762894992611 -9.413185151947454 z"/>
<path fill="#3c3c3c" stroke="#3c3c3c" d="M12.998223057992755 -7.211853036020245 L12.998223057992755 -6.045964711147148 L12.284570979688105 -6.6743422535844426 L12.284570979688105 -7.84023057845754 z"/>
<path fill="#3c3c3c" stroke="#3c3c3c" d="M13.984474631978248 -6.808331984962572 L13.984474631978248 -5.642443660089474 L12.998223057992751 -6.045964711147158 L12.998223057992751 -7.211853036020256 z"/>
<path fill="#3c3c3c" stroke="#3c3c3c" d="M12.284570979688104 -7.8402305784575415 L12.284570979688104 -6.674342253584444 L11.939901064722022 -7.44271041833503 L11.939901064722024 -8.608598743208127 z"/>
<path fill="#3c3c3c" stroke="#3c3c3c" d="M15.110126961569227 -6.684165179217168 L15.110126961569227 -5.518276854344067 L13.984474631978252 -5.6424436600894685 L13.984474631978252 -6.808331984962569 z"/>
<path fill="#3c3c3c" stroke="#3c3c3c" d="M16.223154462199535 -6.856122033931985 L16.223154462199535 -5.69023370905889 L15.110126961569227 -5.518276854344069 L15.110126961569227 -6.684165179217164 z"/>
<path fill="#3c3c3c" stroke="#3c3c3c" d="M17.173236602410764 -7.30097882303197 L17.173236602410764 -6.135090498158867 L16.223154462199535 -5.6902337090588855 L16.223154462199535 -6.856122033931989 z"/>
<path fill="#3c3c3c" stroke="#3c3c3c" d="M17.8320595245805 -7.9586551721125876 L17.8320595245805 -6.792766847239492 L17.17323660241076 -6.135090498158868 L17.17323660241076 -7.300978823031963 z"/>
<path fill="#3c3c3c" stroke="#3c3c3c" d="M18.1106455424059 -8.740328245920061 L18.1106455424059 -7.574439921046965 L17.832059524580504 -6.79276684723949 L17.8320595245805 -7.9586551721125876 z"/>
<path fill="#3c3c3c" stroke="#3c3c3c" d="M17.971370070481218 -9.540428764436657 L17.971370070481218 -8.374540439563562 L18.1106455424059 -7.574439921046965 L18.1106455424059 -8.740328245920061 z"/>
<path fill="#3c3c3c" stroke="#3c3c3c" d="M16.56836847946727 -10.775785205759341 L16.568368479467267 -9.609896880886247 L17.433043033041926 -9.085010394253592 L17.433043033041923 -10.250898719126695 z"/>
<path fill="#3c3c3c" stroke="#3c3c3c" d="M17.433043033041912 -10.25089871912669 L17.433043033041915 -9.085010394253594 L17.97137007048122 -8.374540439563564 L17.971370070481218 -9.540428764436658 z"/>
<path fill="#3c3c3c" stroke="#3c3c3c" d="M15.494125499544609 -11.044199395818445 L16.568368479467257 -10.77578520575934 L17.433043033041912 -10.25089871912669 L17.971370070481218 -9.540428764436658 L18.1106455424059 -8.740328245920061 L17.832059524580504 -7.958655172112586 L17.173236602410764 -7.300978823031963 L16.223154462199535 -6.856122033931981 L15.110126961569227 -6.6841651792171595 L13.984474631978252 -6.80833198496256 L12.998223057992751 -7.211853036020245 L12.284570979688102 -7.840230578457541 L11.939901064722022 -8.608598743208127 L12.010762894992611 -9.413185151947454 L12.487586187662872 -10.14532595180808 L13.30597331488861 -10.706141470836602 L14.355396560298365 -11.01989046560215 z"/>
<path fill="#3c3c3c" stroke="#3c3c3c" d="M15.494125499544609 -9.87831107094535 L14.355396560298365 -9.854002140729056 L13.30597331488861 -9.540253145963506 L12.487586187662872 -8.979437626934981 L12.010762894992611 -8.247296827074358 L11.939901064722022 -7.4427104183350306 L12.284570979688102 -6.674342253584444 L12.998223057992751 -6.045964711147149 L13.984474631978252 -5.642443660089464 L15.110126961569227 -5.518276854344063 L16.223154462199535 -5.690233709058884 L17.173236602410764 -6.135090498158866 L17.832059524580504 -6.792766847239491 L18.1106455424059 -7.574439921046966 L17.971370070481218 -8.374540439563562 L17.433043033041912 -9.085010394253594 L16.568368479467257 -9.609896880886245 z"/>
<path fill="#3c3c3c" stroke="#3c3c3c" d="M15.017769755756788 -8.949207995200892 L15.017769755756788 12.248761547946314 L15.892619311875691 12.415062414200431 L15.892619311875691 -8.782907128946777 z"/>
<path fill="#3c3c3c" stroke="#3c3c3c" d="M14.142619671292163 -8.783700779888493 L14.142619671292163 12.414268763258724 L15.017769755756788 12.24876154794631 L15.017769755756788 -8.949207995200904 z"/>
<path fill="#3c3c3c" stroke="#3c3c3c" d="M13.501664816870141 -8.33073300769402 L13.501664816870138 12.867236535453184 L14.142619671292156 12.414268763258727 L14.14261967129216 -8.783700779888479 z"/>
<path fill="#3c3c3c" stroke="#3c3c3c" d="M13.266648528117912 -7.711677027374351 L13.26664852811791 13.486292515772854 L13.501664816870143 12.867236535453184 L13.501664816870143 -8.330733007694022 z"/>
<path fill="#3c3c3c" stroke="#3c3c3c" d="M13.500543229814797 -7.0924083889257785 L13.500543229814799 14.105561154221427 L13.266648528117917 13.486292515772854 L13.266648528117916 -7.711677027374351 z"/>
<path fill="#3c3c3c" stroke="#3c3c3c" d="M14.140677025527197 -6.63885962391852 L14.140677025527198 14.55910991922868 L13.500543229814797 14.10556115422143 L13.5005432298148 -7.092408388925779 z"/>
<path fill="#3c3c3c" stroke="#3c3c3c" d="M15.01552658164609 -6.472558757664417 L15.01552658164609 14.72541078548279 L14.14067702552719 14.559109919228675 L14.14067702552719 -6.638859623918532 z"/>
<path fill="#3c3c3c" stroke="#3c3c3c" d="M16.76664780928497 -7.710089725490944 L16.766647809284965 13.48787981765626 L16.531631520532738 14.106935797975932 L16.531631520532738 -7.091033745171273 z"/>
<path fill="#3c3c3c" stroke="#3c3c3c" d="M15.890676666110718 -6.638065972976834 L15.890676666110718 14.559903570170375 L15.01552658164609 14.725410785482788 L15.01552658164609 -6.472558757664421 z"/>
<path fill="#3c3c3c" stroke="#3c3c3c" d="M16.53163152053273 -7.091033745171275 L16.531631520532734 14.106935797975936 L15.890676666110709 14.559903570170388 L15.890676666110714 -6.638065972976818 z"/>
<path fill="#3c3c3c" stroke="#3c3c3c" d="M16.53275310758809 -8.329358363939516 L16.53275310758809 12.868611179207688 L16.766647809284972 13.48787981765626 L16.76664780928497 -7.710089725490943 z"/>
<path fill="#3c3c3c" stroke="#3c3c3c" d="M15.892619311875697 -8.782907128946775 L15.892619311875698 12.41506241420043 L16.532753107588093 12.868611179207688 L16.532753107588093 -8.329358363939514 z"/>
<path fill="#3c3c3c" stroke="#3c3c3c" d="M15.01776975575679 -8.94920799520089 L15.892619311875693 -8.782907128946775 L16.53275310758809 -8.329358363939516 L16.76664780928497 -7.710089725490944 L16.531631520532738 -7.091033745171273 L15.890676666110718 -6.6380659729768166 L15.015526581646093 -6.472558757664404 L14.140677025527191 -6.638859623918521 L13.500543229814795 -7.0924083889257785 L13.266648528117914 -7.711677027374351 L13.501664816870143 -8.330733007694022 L14.142619671292165 -8.783700779888477 z"/>
<path fill="#3c3c3c" stroke="#3c3c3c" d="M15.892619311875693 12.41506241420043 L15.01776975575679 12.248761547946316 L14.142619671292165 12.414268763258729 L13.501664816870143 12.867236535453184 L13.266648528117914 13.486292515772856 L13.500543229814795 14.105561154221427 L14.140677025527191 14.559109919228684 L15.015526581646093 14.725410785482799 L15.890676666110718 14.55990357017039 L16.531631520532738 14.10693579797593 L16.76664780928497 13.487879817656262 L16.53275310758809 12.868611179207688 z"/>
<path fill="#3c3c3c" stroke="#3c3c3c" d="M-17.433043033041926 -10.250898719126683 L-17.43304303304193 -9.085010394253592 L-16.568368479467267 -9.609896880886248 L-16.568368479467264 -10.77578520575934 z"/>
<path fill="#3c3c3c" stroke="#3c3c3c" d="M-17.971370070481218 -9.540428764436657 L-17.971370070481218 -8.37454043956356 L-17.433043033041915 -9.08501039425359 L-17.433043033041915 -10.250898719126686 z"/>
<path fill="#3c3c3c" stroke="#3c3c3c" d="M-17.8320595245805 -7.9586551721125876 L-17.8320595245805 -6.79276684723949 L-18.1106455424059 -7.574439921046965 L-18.1106455424059 -8.740328245920061 z"/>
<path fill="#3c3c3c" stroke="#3c3c3c" d="M-17.173236602410757 -7.300978823031961 L-17.173236602410757 -6.135090498158866 L-17.8320595245805 -6.79276684723949 L-17.8320595245805 -7.9586551721125876 z"/>
<path fill="#3c3c3c" stroke="#3c3c3c" d="M-18.1106455424059 -8.74032824592006 L-18.1106455424059 -7.574439921046965 L-17.971370070481218 -8.37454043956356 L-17.971370070481218 -9.540428764436658 z"/>
<path fill="#3c3c3c" stroke="#3c3c3c" d="M-16.22315446219953 -6.856122033931991 L-16.22315446219953 -5.690233709058887 L-17.17323660241076 -6.135090498158869 L-17.17323660241076 -7.300978823031972 z"/>
<path fill="#3c3c3c" stroke="#3c3c3c" d="M-13.984474631978248 -6.808331984962563 L-13.984474631978248 -5.642443660089472 L-15.110126961569224 -5.518276854344071 L-15.110126961569224 -6.684165179217161 z"/>
<path fill="#3c3c3c" stroke="#3c3c3c" d="M-12.99822305799275 -7.211853036020257 L-12.99822305799275 -6.045964711147159 L-13.984474631978248 -5.642443660089473 L-13.984474631978248 -6.808331984962571 z"/>
<path fill="#3c3c3c" stroke="#3c3c3c" d="M-15.110126961569222 -6.68416517921716 L-15.110126961569222 -5.518276854344064 L-16.22315446219953 -5.6902337090588855 L-16.22315446219953 -6.856122033931982 z"/>
<path fill="#3c3c3c" stroke="#3c3c3c" d="M-12.284570979688105 -7.840230578457545 L-12.284570979688105 -6.674342253584447 L-12.998223057992753 -6.0459647111471515 L-12.998223057992757 -7.211853036020244 z"/>
<path fill="#3c3c3c" stroke="#3c3c3c" d="M-11.939901064722022 -8.608598743208127 L-11.939901064722024 -7.442710418335032 L-12.2845709796881 -6.674342253584446 L-12.284570979688102 -7.840230578457542 z"/>
<path fill="#3c3c3c" stroke="#3c3c3c" d="M-12.010762894992613 -9.413185151947454 L-12.010762894992611 -8.247296827074358 L-11.939901064722022 -7.442710418335031 L-11.939901064722022 -8.608598743208127 z"/>
<path fill="#3c3c3c" stroke="#3c3c3c" d="M-12.487586187662872 -10.145325951808081 L-12.48758618766287 -8.979437626934981 L-12.010762894992611 -8.24729682707436 L-12.010762894992611 -9.413185151947456 z"/>
<path fill="#3c3c3c" stroke="#3c3c3c" d="M-13.305973314888607 -10.706141470836602 L-13.305973314888604 -9.540253145963508 L-12.487586187662869 -8.979437626934983 L-12.487586187662869 -10.14532595180808 z"/>
<path fill="#3c3c3c" stroke="#3c3c3c" d="M-14.355396560298365 -11.019890465602167 L-14.355396560298365 -9.854002140729063 L-13.30597331488861 -9.540253145963513 L-13.30597331488861 -10.706141470836616 z"/>
<path fill="#3c3c3c" stroke="#3c3c3c" d="M-16.568368479467257 -10.775785205759343 L-16.568368479467257 -9.609896880886257 L-15.494125499544612 -9.878311070945362 L-15.494125499544612 -11.044199395818447 z"/>
<path fill="#3c3c3c" stroke="#3c3c3c" d="M-15.49412549954461 -11.044199395818454 L-15.49412549954461 -9.878311070945358 L-14.355396560298365 -9.854002140729065 L-14.355396560298365 -11.019890465602161 z"/>
<path fill="#3c3c3c" stroke="#3c3c3c" d="M-17.433043033041915 -10.250898719126688 L-16.568368479467257 -10.77578520575934 L-15.494125499544612 -11.044199395818445 L-14.355396560298367 -11.019890465602153 L-13.30597331488861 -10.706141470836602 L-12.487586187662872 -10.14532595180808 L-12.010762894992613 -9.413185151947456 L-11.939901064722022 -8.608598743208127 L-12.2845709796881 -7.840230578457542 L-12.998223057992751 -7.211853036020246 L-13.98447463197825 -6.80833198496256 L-15.110126961569225 -6.6841651792171595 L-16.22315446219953 -6.856122033931981 L-17.17323660241076 -7.300978823031961 L-17.832059524580504 -7.958655172112586 L-18.1106455424059 -8.740328245920061 L-17.971370070481218 -9.540428764436658 z"/>
<path fill="#3c3c3c" stroke="#3c3c3c" d="M-17.433043033041915 -9.085010394253592 L-17.971370070481218 -8.37454043956356 L-18.1106455424059 -7.574439921046965 L-17.832059524580504 -6.79276684723949 L-17.17323660241076 -6.135090498158865 L-16.22315446219953 -5.690233709058884 L-15.110126961569225 -5.518276854344063 L-13.98447463197825 -5.642443660089464 L-12.998223057992751 -6.04596471114715 L-12.2845709796881 -6.674342253584446 L-11.939901064722022 -7.442710418335031 L-12.010762894992613 -8.247296827074358 L-12.487586187662872 -8.979437626934981 L-13.30597331488861 -9.540253145963506 L-14.355396560298367 -9.854002140729056 L-15.494125499544612 -9.87831107094535 L-16.568368479467257 -9.609896880886245 z"/>
<path fill="#3c3c3c" stroke="#3c3c3c" d="M-16.53275310758809 -8.329358363939516 L-16.532753107588093 12.868611179207688 L-15.892619311875697 12.41506241420043 L-15.892619311875697 -8.782907128946771 z"/>
<path fill="#3c3c3c" stroke="#3c3c3c" d="M-16.76664780928497 -7.7100897254909455 L-16.766647809284972 13.48787981765626 L-16.53275310758809 12.868611179207688 L-16.53275310758809 -8.329358363939518 z"/>
<path fill="#3c3c3c" stroke="#3c3c3c" d="M-16.531631520532738 -7.091033745171274 L-16.531631520532738 14.10693579797593 L-16.766647809284965 13.48787981765626 L-16.76664780928497 -7.710089725490944 z"/>
<path fill="#3c3c3c" stroke="#3c3c3c" d="M-15.890676666110712 -6.63806597297682 L-15.890676666110712 14.559903570170386 L-16.531631520532734 14.106935797975932 L-16.531631520532738 -7.091033745171273 z"/>
<path fill="#3c3c3c" stroke="#3c3c3c" d="M-15.015526581646094 -6.472558757664409 L-15.015526581646094 14.725410785482797 L-15.890676666110718 14.559903570170384 L-15.890676666110718 -6.638065972976822 z"/>
<path fill="#3c3c3c" stroke="#3c3c3c" d="M-14.14067702552719 -6.6388596239185285 L-14.14067702552719 14.559109919228684 L-15.015526581646093 14.725410785482799 L-15.015526581646093 -6.472558757664413 z"/>
<path fill="#3c3c3c" stroke="#3c3c3c" d="M-13.500543229814799 -7.092408388925777 L-13.500543229814804 14.105561154221428 L-14.140677025527198 14.559109919228682 L-14.140677025527195 -6.638859623918518 z"/>
<path fill="#3c3c3c" stroke="#3c3c3c" d="M-14.142619671292158 -8.783700779888479 L-14.142619671292158 12.414268763258729 L-13.501664816870141 12.867236535453188 L-13.50166481687014 -8.33073300769402 z"/>
<path fill="#3c3c3c" stroke="#3c3c3c" d="M-13.266648528117916 -7.71167702737435 L-13.266648528117914 13.486292515772856 L-13.500543229814797 14.105561154221428 L-13.500543229814797 -7.0924083889257785 z"/>
<path fill="#3c3c3c" stroke="#3c3c3c" d="M-13.501664816870141 -8.33073300769402 L-13.50166481687014 12.867236535453186 L-13.266648528117914 13.486292515772856 L-13.266648528117914 -7.711677027374349 z"/>
<path fill="#3c3c3c" stroke="#3c3c3c" d="M-15.017769755756788 -8.949207995200897 L-15.017769755756788 12.248761547946305 L-14.142619671292163 12.414268763258718 L-14.142619671292163 -8.783700779888484 z"/>
<path fill="#3c3c3c" stroke="#3c3c3c" d="M-15.892619311875693 -8.78290712894678 L-15.892619311875693 12.415062414200424 L-15.017769755756786 12.248761547946309 L-15.017769755756786 -8.949207995200897 z"/>
<path fill="#3c3c3c" stroke="#3c3c3c" d="M-16.532753107588086 -8.329358363939516 L-15.892619311875693 -8.782907128946775 L-15.017769755756788 -8.94920799520089 L-14.142619671292163 -8.783700779888477 L-13.501664816870143 -8.33073300769402 L-13.266648528117914 -7.71167702737435 L-13.500543229814797 -7.092408388925778 L-14.140677025527191 -6.63885962391852 L-15.015526581646094 -6.472558757664404 L-15.89067666611072 -6.638065972976817 L-16.53163152053274 -7.091033745171274 L-16.76664780928497 -7.710089725490945 z"/>
<path fill="#3c3c3c" stroke="#3c3c3c" d="M-15.892619311875693 12.41506241420043 L-16.532753107588086 12.868611179207688 L-16.76664780928497 13.48787981765626 L-16.53163152053274 14.10693579797593 L-15.89067666611072 14.559903570170386 L-15.015526581646094 14.725410785482799 L-14.140677025527191 14.559109919228685 L-13.500543229814797 14.105561154221427 L-13.266648528117914 13.486292515772856 L-13.501664816870143 12.867236535453186 L-14.142619671292163 12.414268763258729 L-15.017769755756788 12.248761547946316 z"/>
<path fill="#3c3c3c" stroke="#3c3c3c" d="M-32.890663911153496 10.293199527712945 L-32.890663911153496 11.459087852586041 L-33.099999999999994 10.66666666666667 L-33.099999999999994 9.500778341793573 z"/>
<path fill="#3c3c3c" stroke="#3c3c3c" d="M-32.29092764338404 10.978599841516536 L-32.29092764338404 12.14448816638963 L-32.890663911153496 11.459087852586043 L-32.890663911153496 10.293199527712947 z"/>
<path fill="#3c3c3c" stroke="#3c3c3c" d="M-30.28603191433623 11.685024874504919 L-30.28603191433623 12.85091319937802 L-31.381788902907264 12.630300497764013 L-31.381788902907264 11.464412172890912 z"/>
<path fill="#3c3c3c" stroke="#3c3c3c" d="M-29.151644730776535 11.610642978548402 L-29.151644730776535 12.776531303421496 L-30.286031914336235 12.850913199378015 L-30.286031914336235 11.68502487450492 z"/>
<path fill="#3c3c3c" stroke="#3c3c3c" d="M-31.38178890290726 11.464412172890915 L-31.381788902907264 12.630300497764015 L-32.29092764338404 12.144488166389632 L-32.29092764338404 10.978599841516532 z"/>
<path fill="#3c3c3c" stroke="#3c3c3c" d="M-28.131832627224302 11.251312172234595 L-28.131832627224302 12.417200497107697 L-29.151644730776535 12.776531303421498 L-29.151644730776535 11.610642978548398 z"/>
<path fill="#3c3c3c" stroke="#3c3c3c" d="M-26.952783390979906 9.903852030266936 L-26.952783390979903 11.069740355140032 L-27.364326879238195 11.821450396950024 L-27.364326879238195 10.655562072076926 z"/>
<path fill="#3c3c3c" stroke="#3c3c3c" d="M-26.952783390979903 9.097704653320209 L-26.952783390979903 10.263592978193305 L-26.952783390979903 11.069740355140034 L-26.952783390979903 9.903852030266936 z"/>
<path fill="#3c3c3c" stroke="#3c3c3c" d="M-27.364326879238195 10.655562072076926 L-27.364326879238195 11.821450396950024 L-28.131832627224306 12.417200497107698 L-28.131832627224306 11.2513121722346 z"/>
<path fill="#3c3c3c" stroke="#3c3c3c" d="M-27.364326879238195 8.34599461151022 L-27.36432687923819 9.511882936383316 L-26.952783390979903 10.263592978193305 L-26.9527833909799 9.097704653320209 z"/>
<path fill="#3c3c3c" stroke="#3c3c3c" d="M-28.131832627224302 7.750244511352544 L-28.131832627224302 8.91613283622564 L-27.364326879238195 9.511882936383316 L-27.364326879238195 8.345994611510221 z"/>
<path fill="#3c3c3c" stroke="#3c3c3c" d="M-29.151644730776543 7.3909137050387335 L-29.151644730776543 8.556802029911836 L-28.131832627224302 8.91613283622564 L-28.131832627224302 7.750244511352538 z"/>
<path fill="#3c3c3c" stroke="#3c3c3c" d="M-30.28603191433623 7.316531809082214 L-30.28603191433623 8.482420133955316 L-29.15164473077654 8.556802029911834 L-29.15164473077654 7.390913705038733 z"/>
<path fill="#3c3c3c" stroke="#3c3c3c" d="M-31.381788902907264 7.5371445106962245 L-31.381788902907264 8.703032835569317 L-30.286031914336228 8.482420133955308 L-30.286031914336228 7.316531809082217 z"/>
<path fill="#3c3c3c" stroke="#3c3c3c" d="M-32.290927643384045 8.022956842070613 L-32.290927643384045 9.188845166943711 L-31.38178890290727 8.703032835569326 L-31.38178890290727 7.5371445106962325 z"/>
<path fill="#3c3c3c" stroke="#3c3c3c" d="M-33.099999999999994 9.500778341793573 L-33.099999999999994 10.66666666666667 L-32.8906639111535 9.8742454807473 L-32.8906639111535 8.708357155874204 z"/>
<path fill="#3c3c3c" stroke="#3c3c3c" d="M-32.8906639111535 8.708357155874204 L-32.8906639111535 9.8742454807473 L-32.290927643384045 9.18884516694371 L-32.290927643384045 8.022956842070613 z"/>
<path fill="#3c3c3c" stroke="#3c3c3c" d="M-32.8906639111535 10.293199527712945 L-33.099999999999994 9.500778341793573 L-32.8906639111535 8.708357155874202 L-32.29092764338404 8.022956842070611 L-31.381788902907267 7.537144510696232 L-30.286031914336235 7.316531809082223 L-29.151644730776543 7.390913705038741 L-28.131832627224306 7.750244511352544 L-27.364326879238195 8.34599461151022 L-26.952783390979903 9.097704653320209 L-26.952783390979903 9.903852030266938 L-27.364326879238195 10.655562072076926 L-28.131832627224302 11.251312172234602 L-29.151644730776543 11.610642978548405 L-30.286031914336235 11.685024874504926 L-31.381788902907267 11.464412172890917 L-32.29092764338404 10.978599841516534 z"/>
<path fill="#3c3c3c" stroke="#3c3c3c" d="M-32.8906639111535 11.459087852586043 L-32.29092764338404 12.14448816638963 L-31.381788902907267 12.630300497764013 L-30.286031914336235 12.85091319937802 L-29.151644730776543 12.776531303421502 L-28.131832627224302 12.417200497107698 L-27.364326879238195 11.821450396950022 L-26.952783390979903 11.069740355140032 L-26.952783390979903 10.263592978193305 L-27.364326879238195 9.511882936383316 L-28.131832627224306 8.916132836225641 L-29.151644730776543 8.556802029911838 L-30.286031914336235 8.482420133955317 L-31.381788902907267 8.703032835569326 L-32.29092764338404 9.18884516694371 L-32.8906639111535 9.8742454807473 L-33.099999999999994 10.66666666666667 z"/>
<path fill="#3c3c3c" stroke="#3c3c3c" d="M-31.515544456622766 11.285829103214894 L-31.515544456622766 32.4837986463621 L-31.749999999999996 31.864636209813877 L-31.749999999999996 10.66666666666667 z"/>
<path fill="#3c3c3c" stroke="#3c3c3c" d="M-30.874999999999996 11.739087464906333 L-30.874999999999993 32.937057008053536 L-31.515544456622763 32.4837986463621 L-31.515544456622766 11.285829103214894 z"/>
<path fill="#3c3c3c" stroke="#3c3c3c" d="M-29.999999999999996 11.904991539763117 L-29.999999999999996 33.10296108291031 L-30.874999999999993 32.93705700805353 L-30.874999999999993 11.739087464906335 z"/>
<path fill="#3c3c3c" stroke="#3c3c3c" d="M-29.124999999999996 11.739087464906326 L-29.124999999999996 32.937057008053536 L-29.999999999999993 33.10296108291032 L-29.999999999999993 11.90499153976311 z"/>
<path fill="#3c3c3c" stroke="#3c3c3c" d="M-28.484455543377234 11.285829103214894 L-28.484455543377234 32.4837986463621 L-29.125 32.937057008053536 L-29.125 11.739087464906333 z"/>
<path fill="#3c3c3c" stroke="#3c3c3c" d="M-28.25 10.66666666666667 L-28.25 31.864636209813877 L-28.48445554337723 32.4837986463621 L-28.48445554337723 11.285829103214894 z"/>
<path fill="#3c3c3c" stroke="#3c3c3c" d="M-28.48445554337723 10.047504230118447 L-28.48445554337723 31.24547377326565 L-28.249999999999996 31.864636209813877 L-28.249999999999996 10.66666666666667 z"/>
<path fill="#3c3c3c" stroke="#3c3c3c" d="M-30.874999999999993 9.594245868426997 L-30.874999999999993 30.79221541157421 L-29.999999999999993 30.62631133671743 L-29.999999999999993 9.428341793570215 z"/>
<path fill="#3c3c3c" stroke="#3c3c3c" d="M-29.124999999999993 9.594245868427008 L-29.124999999999993 30.79221541157421 L-28.484455543377223 31.24547377326565 L-28.48445554337723 10.047504230118447 z"/>
<path fill="#3c3c3c" stroke="#3c3c3c" d="M-29.999999999999996 9.42834179357022 L-29.999999999999996 30.626311336717414 L-29.124999999999993 30.7922154115742 L-29.124999999999993 9.594245868427004 z"/>
<path fill="#3c3c3c" stroke="#3c3c3c" d="M-31.515544456622766 10.047504230118447 L-31.515544456622774 31.245473773265648 L-30.875000000000004 30.792215411574208 L-30.875 9.594245868427008 z"/>
<path fill="#3c3c3c" stroke="#3c3c3c" d="M-31.75 10.66666666666667 L-31.75 31.864636209813874 L-31.515544456622766 31.24547377326565 L-31.515544456622766 10.047504230118445 z"/>
<path fill="#3c3c3c" stroke="#3c3c3c" d="M-31.515544456622766 11.285829103214892 L-31.75 10.666666666666668 L-31.515544456622766 10.047504230118445 L-30.874999999999996 9.594245868427004 L-29.999999999999996 9.428341793570223 L-29.124999999999996 9.594245868427008 L-28.48445554337723 10.047504230118447 L-28.25 10.666666666666671 L-28.48445554337723 11.285829103214894 L-29.125 11.739087464906333 L-30 11.904991539763115 L-30.875 11.739087464906333 z"/>
<path fill="#3c3c3c" stroke="#3c3c3c" d="M-31.75 31.864636209813874 L-31.515544456622766 32.4837986463621 L-30.875 32.937057008053536 L-30 33.10296108291032 L-29.125 32.937057008053536 L-28.48445554337723 32.4837986463621 L-28.25 31.864636209813874 L-28.48445554337723 31.245473773265655 L-29.124999999999996 30.79221541157421 L-29.999999999999996 30.62631133671743 L-30.874999999999996 30.79221541157421 L-31.515544456622766 31.245473773265655 z"/>
<path fill="#3c3c3c" stroke="#3c3c3c" d="M-15.494125499544609 30.045756079405592 L-15.494125499544609 31.21164440427869 L-16.568368479467257 30.943230214219586 L-16.568368479467257 29.777341889346488 z"/>
<path fill="#3c3c3c" stroke="#3c3c3c" d="M-14.355396560298365 30.0214471491893 L-14.355396560298365 31.187335474062394 L-15.494125499544607 31.211644404278687 L-15.494125499544607 30.045756079405592 z"/>
<path fill="#3c3c3c" stroke="#3c3c3c" d="M-12.487586187662872 29.146882635395226 L-12.487586187662872 30.312770960268324 L-13.30597331488861 30.873586479296844 L-13.30597331488861 29.70769815442375 z"/>
<path fill="#3c3c3c" stroke="#3c3c3c" d="M-12.010762894992611 28.4147418355346 L-12.010762894992611 29.580630160407697 L-12.487586187662872 30.312770960268324 L-12.487586187662872 29.146882635395226 z"/>
<path fill="#3c3c3c" stroke="#3c3c3c" d="M-13.305973314888606 29.707698154423746 L-13.305973314888606 30.873586479296847 L-14.355396560298363 31.187335474062397 L-14.355396560298363 30.021447149189296 z"/>
<path fill="#3c3c3c" stroke="#3c3c3c" d="M-11.939901064722022 27.610155426795274 L-11.939901064722022 28.776043751668368 L-12.010762894992613 29.580630160407697 L-12.010762894992611 28.4147418355346 z"/>
<path fill="#3c3c3c" stroke="#3c3c3c" d="M-12.998223057992751 26.213409719607395 L-12.998223057992753 27.37929804448049 L-12.284570979688098 28.007675586917784 L-12.284570979688102 26.841787262044686 z"/>
<path fill="#3c3c3c" stroke="#3c3c3c" d="M-13.984474631978248 25.80988866854971 L-13.984474631978248 26.975776993422805 L-12.998223057992751 27.379298044480493 L-12.998223057992751 26.213409719607395 z"/>
<path fill="#3c3c3c" stroke="#3c3c3c" d="M-12.2845709796881 26.84178726204469 L-12.2845709796881 28.007675586917784 L-11.939901064722022 28.77604375166837 L-11.939901064722022 27.610155426795274 z"/>
<path fill="#3c3c3c" stroke="#3c3c3c" d="M-15.110126961569227 25.685721862804304 L-15.110126961569227 26.851610187677405 L-13.984474631978252 26.975776993422805 L-13.984474631978252 25.809888668549704 z"/>
<path fill="#3c3c3c" stroke="#3c3c3c" d="M-16.223154462199535 25.85767871751913 L-16.223154462199535 27.023567042392223 L-15.110126961569227 26.8516101876774 L-15.110126961569227 25.685721862804307 z"/>
<path fill="#3c3c3c" stroke="#3c3c3c" d="M-17.173236602410764 26.302535506619105 L-17.173236602410764 27.468423831492203 L-16.223154462199535 27.02356704239222 L-16.223154462199535 25.857678717519125 z"/>
<path fill="#3c3c3c" stroke="#3c3c3c" d="M-17.832059524580504 26.960211855699733 L-17.832059524580504 28.12610018057283 L-17.173236602410764 27.468423831492206 L-17.173236602410764 26.302535506619108 z"/>
<path fill="#3c3c3c" stroke="#3c3c3c" d="M-18.1106455424059 27.741884929507208 L-18.1106455424059 28.907773254380306 L-17.832059524580504 28.12610018057283 L-17.832059524580504 26.960211855699736 z"/>
<path fill="#3c3c3c" stroke="#3c3c3c" d="M-17.971370070481218 28.54198544802381 L-17.971370070481218 29.707873772896903 L-18.1106455424059 28.907773254380306 L-18.1106455424059 27.741884929507208 z"/>
<path fill="#3c3c3c" stroke="#3c3c3c" d="M-16.568368479467257 29.777341889346488 L-16.568368479467257 30.943230214219582 L-17.433043033041912 30.418343727586933 L-17.433043033041912 29.25245540271384 z"/>
<path fill="#3c3c3c" stroke="#3c3c3c" d="M-17.433043033041912 29.25245540271384 L-17.433043033041912 30.418343727586937 L-17.971370070481218 29.707873772896903 L-17.971370070481218 28.541985448023805 z"/>
<path fill="#3c3c3c" stroke="#3c3c3c" d="M-15.494125499544609 30.045756079405592 L-16.568368479467257 29.777341889346488 L-17.433043033041912 29.25245540271384 L-17.971370070481218 28.541985448023805 L-18.1106455424059 27.741884929507208 L-17.832059524580504 26.960211855699736 L-17.173236602410764 26.30253550661911 L-16.223154462199535 25.85767871751913 L-15.110126961569227 25.685721862804307 L-13.984474631978252 25.80988866854971 L-12.998223057992751 26.21340971960739 L-12.284570979688102 26.84178726204469 L-11.939901064722022 27.610155426795274 L-12.010762894992611 28.414741835534603 L-12.487586187662872 29.146882635395226 L-13.30597331488861 29.707698154423753 L-14.355396560298365 30.0214471491893 z"/>
<path fill="#3c3c3c" stroke="#3c3c3c" d="M-15.494125499544609 31.21164440427869 L-14.355396560298365 31.187335474062394 L-13.30597331488861 30.873586479296844 L-12.487586187662872 30.312770960268324 L-12.010762894992611 29.580630160407697 L-11.939901064722022 28.77604375166837 L-12.284570979688102 28.007675586917784 L-12.998223057992751 27.37929804448049 L-13.984474631978252 26.9757769934228 L-15.110126961569227 26.851610187677405 L-16.223154462199535 27.023567042392223 L-17.173236602410764 27.468423831492206 L-17.832059524580504 28.126100180572834 L-18.1106455424059 28.907773254380306 L-17.971370070481218 29.707873772896903 L-17.433043033041912 30.418343727586937 L-16.568368479467257 30.943230214219586 z"/>
<path fill="#3c3c3c" stroke="#3c3c3c" d="M-15.017769755756788 30.282541328534226 L-15.017769755756788 51.48051087168143 L-15.892619311875691 51.31421000542732 L-15.892619311875691 30.11624046228011 z"/>
<path fill="#3c3c3c" stroke="#3c3c3c" d="M-14.142619671292163 30.117034113221813 L-14.142619671292163 51.31500365636902 L-15.017769755756788 51.48051087168143 L-15.017769755756788 30.282541328534226 z"/>
<path fill="#3c3c3c" stroke="#3c3c3c" d="M-13.501664816870145 29.66406634102736 L-13.501664816870145 50.86203588417457 L-14.142619671292165 51.31500365636902 L-14.142619671292167 30.117034113221816 z"/>
<path fill="#3c3c3c" stroke="#3c3c3c" d="M-13.266648528117914 29.045010360707693 L-13.266648528117914 50.2429799038549 L-13.501664816870145 50.86203588417457 L-13.501664816870143 29.664066341027358 z"/>
<path fill="#3c3c3c" stroke="#3c3c3c" d="M-13.500543229814795 28.42574172225912 L-13.500543229814795 49.62371126540632 L-13.266648528117914 50.242979903854895 L-13.266648528117914 29.04501036070769 z"/>
<path fill="#3c3c3c" stroke="#3c3c3c" d="M-14.14067702552719 27.972192957251863 L-14.14067702552719 49.170162500399066 L-13.500543229814797 49.62371126540632 L-13.500543229814795 28.42574172225912 z"/>
<path fill="#3c3c3c" stroke="#3c3c3c" d="M-15.01552658164609 27.805892090997745 L-15.01552658164609 49.003861634144954 L-14.14067702552719 49.170162500399066 L-14.14067702552719 27.972192957251863 z"/>
<path fill="#3c3c3c" stroke="#3c3c3c" d="M-16.76664780928497 29.04342305882428 L-16.76664780928497 50.24139260197149 L-16.531631520532738 49.62233662165182 L-16.531631520532738 28.424367078504616 z"/>
<path fill="#3c3c3c" stroke="#3c3c3c" d="M-15.890676666110718 27.971399306310154 L-15.890676666110718 49.16936884945736 L-15.01552658164609 49.00386163414495 L-15.01552658164609 27.80589209099774 z"/>
<path fill="#3c3c3c" stroke="#3c3c3c" d="M-16.53163152053274 28.424367078504613 L-16.53163152053274 49.62233662165182 L-15.89067666611072 49.16936884945736 L-15.890676666110718 27.971399306310158 z"/>
<path fill="#3c3c3c" stroke="#3c3c3c" d="M-16.53275310758809 29.662691697272855 L-16.53275310758809 50.86066124042006 L-16.76664780928497 50.24139260197149 L-16.76664780928497 29.043423058824285 z"/>
<path fill="#3c3c3c" stroke="#3c3c3c" d="M-15.892619311875693 30.116240462280114 L-15.892619311875691 51.31421000542732 L-16.532753107588086 50.860661240420065 L-16.53275310758809 29.662691697272855 z"/>
<path fill="#3c3c3c" stroke="#3c3c3c" d="M-15.01776975575679 30.282541328534233 L-15.892619311875693 30.116240462280114 L-16.53275310758809 29.662691697272855 L-16.76664780928497 29.043423058824285 L-16.531631520532738 28.424367078504613 L-15.890676666110718 27.971399306310158 L-15.015526581646093 27.805892090997745 L-14.140677025527191 27.972192957251863 L-13.500543229814795 28.42574172225912 L-13.266648528117914 29.045010360707693 L-13.501664816870143 29.66406634102736 L-14.142619671292165 30.11703411322182 z"/>
<path fill="#3c3c3c" stroke="#3c3c3c" d="M-15.892619311875693 51.31421000542732 L-15.01776975575679 51.48051087168143 L-14.142619671292165 51.31500365636902 L-13.501664816870143 50.86203588417457 L-13.266648528117914 50.2429799038549 L-13.500543229814795 49.62371126540632 L-14.140677025527191 49.170162500399066 L-15.015526581646093 49.00386163414495 L-15.890676666110718 49.16936884945736 L-16.531631520532738 49.62233662165182 L-16.76664780928497 50.241392601971484 L-16.53275310758809 50.860661240420065 z"/>
<path fill="#3c3c3c" stroke="#3c3c3c" d="M17.433043033041915 29.25245540271384 L17.433043033041915 30.418343727586933 L16.568368479467257 30.943230214219586 L16.568368479467257 29.777341889346488 z"/>
<path fill="#3c3c3c" stroke="#3c3c3c" d="M17.971370070481218 28.541985448023805 L17.971370070481218 29.707873772896903 L17.433043033041915 30.418343727586933 L17.433043033041912 29.25245540271384 z"/>
<path fill="#3c3c3c" stroke="#3c3c3c" d="M17.832059524580504 26.960211855699733 L17.832059524580504 28.12610018057283 L18.1106455424059 28.907773254380306 L18.1106455424059 27.741884929507208 z"/>
<path fill="#3c3c3c" stroke="#3c3c3c" d="M17.17323660241076 26.30253550661911 L17.17323660241076 27.468423831492206 L17.832059524580504 28.12610018057283 L17.832059524580504 26.960211855699733 z"/>
<path fill="#3c3c3c" stroke="#3c3c3c" d="M18.1106455424059 27.741884929507208 L18.1106455424059 28.907773254380306 L17.971370070481218 29.7078737728969 L17.971370070481218 28.541985448023805 z"/>
<path fill="#3c3c3c" stroke="#3c3c3c" d="M16.22315446219953 25.85767871751912 L16.22315446219953 27.023567042392223 L17.17323660241076 27.468423831492206 L17.17323660241076 26.3025355066191 z"/>
<path fill="#3c3c3c" stroke="#3c3c3c" d="M13.984474631978248 25.8098886685497 L13.984474631978248 26.9757769934228 L15.110126961569224 26.851610187677398 L15.110126961569224 25.6857218628043 z"/>
<path fill="#3c3c3c" stroke="#3c3c3c" d="M12.99822305799275 26.213409719607395 L12.99822305799275 27.379298044480493 L13.984474631978248 26.975776993422805 L13.984474631978248 25.809888668549707 z"/>
<path fill="#3c3c3c" stroke="#3c3c3c" d="M15.110126961569222 25.685721862804307 L15.110126961569222 26.8516101876774 L16.22315446219953 27.023567042392223 L16.22315446219953 25.85767871751913 z"/>
<path fill="#3c3c3c" stroke="#3c3c3c" d="M12.2845709796881 26.84178726204469 L12.284570979688096 28.007675586917784 L12.998223057992751 27.37929804448049 L12.99822305799275 26.21340971960739 z"/>
<path fill="#3c3c3c" stroke="#3c3c3c" d="M11.93990106472202 27.610155426795277 L11.939901064722022 28.77604375166837 L12.284570979688102 28.007675586917784 L12.2845709796881 26.84178726204469 z"/>
<path fill="#3c3c3c" stroke="#3c3c3c" d="M12.010762894992613 28.414741835534606 L12.010762894992613 29.5806301604077 L11.939901064722022 28.77604375166837 L11.939901064722022 27.610155426795277 z"/>
<path fill="#3c3c3c" stroke="#3c3c3c" d="M12.487586187662872 29.146882635395226 L12.487586187662872 30.31277096026832 L12.010762894992613 29.5806301604077 L12.010762894992613 28.414741835534606 z"/>
<path fill="#3c3c3c" stroke="#3c3c3c" d="M13.305973314888611 29.70769815442375 L13.305973314888611 30.873586479296844 L12.487586187662874 30.312770960268324 L12.487586187662874 29.146882635395226 z"/>
<path fill="#3c3c3c" stroke="#3c3c3c" d="M14.355396560298365 30.0214471491893 L14.355396560298365 31.18733547406239 L13.30597331488861 30.87358647929684 L13.30597331488861 29.70769815442375 z"/>
<path fill="#3c3c3c" stroke="#3c3c3c" d="M16.568368479467257 29.777341889346488 L16.568368479467257 30.943230214219586 L15.494125499544612 31.21164440427869 L15.494125499544612 30.045756079405592 z"/>
<path fill="#3c3c3c" stroke="#3c3c3c" d="M15.49412549954461 30.04575607940559 L15.49412549954461 31.211644404278687 L14.355396560298365 31.187335474062394 L14.355396560298365 30.021447149189296 z"/>
<path fill="#3c3c3c" stroke="#3c3c3c" d="M17.433043033041915 29.252455402713835 L16.568368479467257 29.777341889346488 L15.494125499544612 30.045756079405592 L14.355396560298367 30.0214471491893 L13.30597331488861 29.707698154423753 L12.487586187662872 29.146882635395226 L12.010762894992613 28.414741835534603 L11.939901064722022 27.610155426795277 L12.2845709796881 26.84178726204469 L12.998223057992751 26.21340971960739 L13.98447463197825 25.80988866854971 L15.110126961569225 25.685721862804307 L16.22315446219953 25.85767871751913 L17.17323660241076 26.30253550661911 L17.832059524580504 26.960211855699736 L18.1106455424059 27.741884929507208 L17.971370070481218 28.541985448023805 z"/>
<path fill="#3c3c3c" stroke="#3c3c3c" d="M17.433043033041915 30.41834372758693 L17.971370070481218 29.707873772896903 L18.1106455424059 28.907773254380306 L17.832059524580504 28.12610018057283 L17.17323660241076 27.468423831492206 L16.22315446219953 27.023567042392223 L15.110126961569225 26.851610187677405 L13.98447463197825 26.9757769934228 L12.998223057992751 27.37929804448049 L12.2845709796881 28.007675586917784 L11.939901064722022 28.77604375166837 L12.010762894992613 29.5806301604077 L12.487586187662872 30.312770960268324 L13.30597331488861 30.873586479296847 L14.355396560298367 31.187335474062394 L15.494125499544612 31.21164440427869 L16.568368479467257 30.943230214219586 z"/>
<path fill="#3c3c3c" stroke="#3c3c3c" d="M16.532753107588086 29.66269169727286 L16.53275310758809 50.86066124042006 L15.892619311875691 51.31421000542732 L15.892619311875693 30.116240462280114 z"/>
<path fill="#3c3c3c" stroke="#3c3c3c" d="M16.76664780928497 29.043423058824285 L16.76664780928497 50.24139260197149 L16.532753107588086 50.86066124042006 L16.532753107588086 29.66269169727286 z"/>
<path fill="#3c3c3c" stroke="#3c3c3c" d="M16.531631520532738 28.424367078504613 L16.531631520532738 49.62233662165182 L16.76664780928497 50.24139260197149 L16.76664780928497 29.043423058824285 z"/>
<path fill="#3c3c3c" stroke="#3c3c3c" d="M15.890676666110721 27.971399306310158 L15.890676666110721 49.16936884945736 L16.531631520532738 49.62233662165182 L16.53163152053274 28.424367078504613 z"/>
<path fill="#3c3c3c" stroke="#3c3c3c" d="M15.015526581646094 27.80589209099774 L15.015526581646094 49.00386163414495 L15.890676666110718 49.169368849457356 L15.890676666110718 27.971399306310154 z"/>
<path fill="#3c3c3c" stroke="#3c3c3c" d="M14.14067702552719 27.972192957251856 L14.14067702552719 49.170162500399066 L15.015526581646093 49.003861634144954 L15.015526581646093 27.80589209099774 z"/>
<path fill="#3c3c3c" stroke="#3c3c3c" d="M13.500543229814795 28.42574172225912 L13.500543229814793 49.62371126540632 L14.14067702552719 49.170162500399066 L14.14067702552719 27.97219295725186 z"/>
<path fill="#3c3c3c" stroke="#3c3c3c" d="M14.142619671292163 30.117034113221816 L14.142619671292167 51.31500365636902 L13.501664816870145 50.86203588417457 L13.501664816870141 29.66406634102736 z"/>
<path fill="#3c3c3c" stroke="#3c3c3c" d="M13.266648528117914 29.045010360707685 L13.266648528117914 50.242979903854895 L13.500543229814795 49.62371126540632 L13.500543229814795 28.42574172225912 z"/>
<path fill="#3c3c3c" stroke="#3c3c3c" d="M13.501664816870143 29.66406634102736 L13.501664816870143 50.86203588417456 L13.266648528117916 50.242979903854895 L13.266648528117916 29.04501036070769 z"/>
<path fill="#3c3c3c" stroke="#3c3c3c" d="M15.017769755756788 30.282541328534226 L15.017769755756788 51.48051087168144 L14.142619671292163 51.31500365636902 L14.142619671292163 30.117034113221813 z"/>
<path fill="#3c3c3c" stroke="#3c3c3c" d="M15.892619311875693 30.116240462280114 L15.892619311875693 51.31421000542732 L15.017769755756786 51.48051087168143 L15.017769755756786 30.28254132853423 z"/>
<path fill="#3c3c3c" stroke="#3c3c3c" d="M16.532753107588086 29.66269169727286 L15.892619311875693 30.116240462280114 L15.017769755756788 30.282541328534233 L14.142619671292163 30.11703411322182 L13.501664816870143 29.66406634102736 L13.266648528117914 29.04501036070769 L13.500543229814797 28.42574172225912 L14.140677025527191 27.972192957251863 L15.015526581646094 27.805892090997745 L15.89067666611072 27.971399306310158 L16.53163152053274 28.424367078504616 L16.76664780928497 29.043423058824285 z"/>
<path fill="#3c3c3c" stroke="#3c3c3c" d="M15.892619311875693 51.31421000542732 L16.532753107588086 50.860661240420065 L16.76664780928497 50.24139260197149 L16.53163152053274 49.62233662165182 L15.89067666611072 49.16936884945736 L15.015526581646094 49.00386163414495 L14.140677025527191 49.17016250039906 L13.500543229814797 49.62371126540632 L13.266648528117914 50.24297990385489 L13.501664816870143 50.86203588417457 L14.142619671292163 51.31500365636902 L15.017769755756788 51.48051087168143 z"/>
</svg>