<?xml version="1.0" encoding="UTF-8"?>
<!-- Generated by jsxcad -->
<!DOCTYPE svg PUBLIC "-//W3C//DTD SVG 1.1 Tiny//EN" "http://www.w3.org/Graphics/SVG/1.1/DTD/svg11-tiny.dtd">
<svg baseProfile="tiny" height="66.20000000000013mm" width="58.07251818966594mm" viewBox="-29.03625909483297 -33.100000000000065 58.07251818966594 66.20000000000013" version="1.1" stroke="black" stroke-width=".1" fill="none" xmlns="http://www.w3.org/2000/svg">
<path fill="#bababa" stroke="#bababa" d="M0.75 4.939393939393939 L6.712328767123287 3.595238095238095 L6.712328767123287 3.595238095238095 z"/>
<path fill="#bababa" stroke="#bababa" d="M-0.75 4.939393939393939 L0.75 4.939393939393939 L6.712328767123287 3.595238095238095 z"/>
<path fill="#bababa" stroke="#bababa" d="M3.6190476190476186 -21.23333333333333 L-2.380952380952381 -7.2333333333333325 L-2.380952380952381 -7.2333333333333325 L3.6190476190476186 -21.23333333333333 z"/>
<path fill="#bababa" stroke="#bababa" d="M-3.25 2.7291666666666665 L-4.333333333333333 2.5 L-3.4 3.6666666666666665 z"/>
<path fill="#bababa" stroke="#bababa" d="M-4.333333333333333 2.5 L-3.25 2.7291666666666665 L-4.870967741935483 1.111111111111111 z"/>
<path fill="#bababa" stroke="#bababa" d="M-3.25 2.7291666666666665 L-3.4 3.6666666666666665 L-2.1739130434782608 4.5 z"/>
<path fill="#bababa" stroke="#bababa" d="M12.712328767123287 -10.404761904761903 L12.712328767123287 -10.404761904761903 L6.712328767123287 3.595238095238095 L6.712328767123287 3.595238095238095 z"/>
<path fill="#bababa" stroke="#bababa" d="M12.712328767123287 -10.404761904761903 L12.712328767123287 -10.404761904761903 L13.580645161290322 -20.366666666666664 L13.580645161290322 -20.366666666666664 z"/>
<path fill="#bababa" stroke="#bababa" d="M-2.380952380952381 -7.2333333333333325 L-2.380952380952381 -7.2333333333333325 L-4.655172413793103 -1.8285714285714285 z"/>
<path fill="#bababa" stroke="#bababa" d="M13.580645161290322 -20.366666666666664 L3.6190476190476186 -21.23333333333333 L3.6190476190476186 -21.23333333333333 L13.580645161290322 -20.366666666666664 z"/>
<path fill="#bababa" stroke="#bababa" d="M-0.75 4.939393939393939 L-3.25 2.7291666666666665 L-2.1739130434782608 4.5 z"/>
<path fill="#bababa" stroke="#bababa" d="M-3.25 2.7291666666666665 L-4.980392156862744 -0.37037037037037035 L-4.870967741935483 1.111111111111111 z"/>
<path fill="#bababa" stroke="#bababa" d="M-3.25 2.7291666666666665 L6.712328767123287 3.595238095238095 L12.712328767123287 -10.404761904761903 L13.580645161290322 -20.366666666666664 L3.6190476190476186 -21.23333333333333 L-2.380952380952381 -7.2333333333333325 z"/>
<path fill="#bababa" stroke="#bababa" d="M-3.25 2.7291666666666665 L-0.75 4.939393939393939 L6.712328767123287 3.595238095238095 z"/>
<path fill="#bababa" stroke="#bababa" d="M12.712328767123287 -10.404761904761903 L6.712328767123287 3.595238095238095 L0.75 4.939393939393939 L-0.75 4.939393939393939 L-2.1739130434782608 4.5 L-3.4 3.6666666666666665 L-4.333333333333333 2.5 L-4.870967741935483 1.111111111111111 L-4.980392156862744 -0.37037037037037035 L-4.655172413793103 -1.8285714285714285 L-2.380952380952381 -7.2333333333333325 L3.6190476190476186 -21.23333333333333 L13.580645161290322 -20.366666666666664 z"/>
<path fill="#bababa" stroke="#bababa" d="M-4.980392156862744 -0.37037037037037035 L-2.380952380952381 -7.2333333333333325 L-4.655172413793103 -1.8285714285714285 z"/>
<path fill="#bababa" stroke="#bababa" d="M-3.25 2.7291666666666665 L-2.380952380952381 -7.2333333333333325 L-4.980392156862744 -0.37037037037037035 z"/>
<path fill="#ff9065" stroke="#ff9065" d="M1.1194444444444442 -32.89333333333333 L0 -33.099999999999994 L0 -33.099999999999994 L1.1194444444444442 -32.89333333333333 z"/>
<path fill="#ff9065" stroke="#ff9065" d="M2.0906976744186045 -32.291304347826085 L1.1194444444444442 -32.89333333333333 L1.1194444444444442 -32.89333333333333 L2.0906976744186045 -32.291304347826085 z"/>
<path fill="#ff9065" stroke="#ff9065" d="M3.0836842105263154 -30.288372093023256 L2.7736842105263158 -31.38392857142857 L2.7736842105263158 -31.38392857142857 L3.0836842105263154 -30.288372093023256 z"/>
<path fill="#ff9065" stroke="#ff9065" d="M2.9807692307692304 -29.154545454545453 L3.0836842105263154 -30.288372093023256 L3.0836842105263154 -30.288372093023256 L2.9807692307692304 -29.154545454545453 z"/>
<path fill="#ff9065" stroke="#ff9065" d="M2.471014492753623 -28.129310344827584 L2.9807692307692304 -29.154545454545453 L2.9807692307692304 -29.154545454545453 L2.471014492753623 -28.129310344827584 z"/>
<path fill="#ff9065" stroke="#ff9065" d="M1.631578947368421 -27.365 L2.471014492753623 -28.129310344827584 L2.471014492753623 -28.129310344827584 L1.631578947368421 -27.365 z"/>
<path fill="#ff9065" stroke="#ff9065" d="M0.5710526315789474 -26.955357142857142 L1.631578947368421 -27.365 L1.631578947368421 -27.365 L0.5710526315789474 -26.955357142857142 z"/>
<path fill="#ff9065" stroke="#ff9065" d="M-0.5710526315789474 -26.955357142857142 L0.5710526315789474 -26.955357142857142 L0.5710526315789474 -26.955357142857142 L-0.5710526315789474 -26.955357142857142 z"/>
<path fill="#ff9065" stroke="#ff9065" d="M-1.631578947368421 -27.365 L-0.5710526315789474 -26.955357142857142 L-0.5710526315789474 -26.955357142857142 L-1.631578947368421 -27.365 z"/>
<path fill="#ff9065" stroke="#ff9065" d="M-2.471014492753623 -28.129310344827584 L-1.631578947368421 -27.365 L-1.631578947368421 -27.365 L-2.471014492753623 -28.129310344827584 z"/>
<path fill="#ff9065" stroke="#ff9065" d="M-2.9807692307692304 -29.154545454545453 L-2.471014492753623 -28.129310344827584 L-2.471014492753623 -28.129310344827584 L-2.9807692307692304 -29.154545454545453 z"/>
<path fill="#ff9065" stroke="#ff9065" d="M-3.0836842105263154 -30.288372093023256 L-2.9807692307692304 -29.154545454545453 L-2.9807692307692304 -29.154545454545453 L-3.0836842105263154 -30.288372093023256 z"/>
<path fill="#ff9065" stroke="#ff9065" d="M-2.7736842105263158 -31.38392857142857 L-3.0836842105263154 -30.288372093023256 L-3.0836842105263154 -30.288372093023256 L-2.7736842105263158 -31.38392857142857 z"/>
<path fill="#ff9065" stroke="#ff9065" d="M-2.0906976744186045 -32.291304347826085 L-2.7736842105263158 -31.38392857142857 L-2.7736842105263158 -31.38392857142857 L-2.0906976744186045 -32.291304347826085 z"/>
<path fill="#ff9065" stroke="#ff9065" d="M2.7736842105263158 -31.38392857142857 L2.0906976744186045 -32.291304347826085 L2.0906976744186045 -32.291304347826085 L2.7736842105263158 -31.38392857142857 z"/>
<path fill="#ff9065" stroke="#ff9065" d="M-1.1194444444444442 -32.89333333333333 L-2.0906976744186045 -32.291304347826085 L-2.0906976744186045 -32.291304347826085 L-1.1194444444444442 -32.89333333333333 z"/>
<path fill="#ff9065" stroke="#ff9065" d="M0 -33.099999999999994 L-1.1194444444444442 -32.89333333333333 L-1.1194444444444442 -32.89333333333333 L0 -33.099999999999994 z"/>
<path fill="#ff9065" stroke="#ff9065" d="M1.1194444444444442 -32.89333333333333 L0 -33.099999999999994 L-1.1194444444444442 -32.89333333333333 L-2.0906976744186045 -32.291304347826085 L-2.7736842105263158 -31.38392857142857 L-3.0836842105263154 -30.288372093023256 L-2.9807692307692304 -29.154545454545453 L-2.471014492753623 -28.129310344827584 L-1.631578947368421 -27.365 L-0.5710526315789474 -26.955357142857142 L0.5710526315789474 -26.955357142857142 L1.631578947368421 -27.365 L2.471014492753623 -28.129310344827584 L2.9807692307692304 -29.154545454545453 L3.0836842105263154 -30.288372093023256 L2.7736842105263158 -31.38392857142857 L2.0906976744186045 -32.291304347826085 z"/>
<path fill="#ff9065" stroke="#ff9065" d="M2.0906976744186045 -32.291304347826085 L2.7736842105263158 -31.38392857142857 L3.0836842105263154 -30.288372093023256 L2.9807692307692304 -29.154545454545453 L2.471014492753623 -28.129310344827584 L1.631578947368421 -27.365 L0.5710526315789474 -26.955357142857142 L-0.5710526315789474 -26.955357142857142 L-1.631578947368421 -27.365 L-2.471014492753623 -28.129310344827584 L-2.9807692307692304 -29.154545454545453 L-3.0836842105263154 -30.288372093023256 L-2.7736842105263158 -31.38392857142857 L-2.0906976744186045 -32.291304347826085 L-1.1194444444444442 -32.89333333333333 L0 -33.099999999999994 L1.1194444444444442 -32.89333333333333 z"/>
<path fill="#ff9065" stroke="#ff9065" d="M0.875 -31.516666666666666 L0 -31.75 L0 -31.75 L0.875 -31.516666666666666 z"/>
<path fill="#ff9065" stroke="#ff9065" d="M1.5166666666666666 -29.125 L1.75 -30 L1.75 -30 L1.5166666666666666 -29.125 z"/>
<path fill="#ff9065" stroke="#ff9065" d="M1.5166666666666666 -30.875 L0.875 -31.516666666666666 L0.875 -31.516666666666666 L1.5166666666666666 -30.875 z"/>
<path fill="#ff9065" stroke="#ff9065" d="M1.75 -30 L1.5166666666666666 -30.875 L1.5166666666666666 -30.875 L1.75 -30 z"/>
<path fill="#ff9065" stroke="#ff9065" d="M0.875 -28.48333333333333 L1.5166666666666666 -29.125 L1.5166666666666666 -29.125 L0.875 -28.48333333333333 z"/>
<path fill="#ff9065" stroke="#ff9065" d="M0 -28.25 L0.875 -28.48333333333333 L0.875 -28.48333333333333 L0 -28.25 z"/>
<path fill="#ff9065" stroke="#ff9065" d="M-1.75 -30 L-1.5166666666666666 -29.125 L-1.5166666666666666 -29.125 L-1.75 -30 z"/>
<path fill="#ff9065" stroke="#ff9065" d="M-1.5166666666666666 -30.875 L-1.75 -30 L-1.75 -30 L-1.5166666666666666 -30.875 z"/>
<path fill="#ff9065" stroke="#ff9065" d="M-0.875 -28.48333333333333 L0 -28.25 L0 -28.25 L-0.875 -28.48333333333333 z"/>
<path fill="#ff9065" stroke="#ff9065" d="M-1.5166666666666666 -29.125 L-0.875 -28.48333333333333 L-0.875 -28.48333333333333 L-1.5166666666666666 -29.125 z"/>
<path fill="#ff9065" stroke="#ff9065" d="M-0.875 -31.516666666666666 L-1.5166666666666666 -30.875 L-1.5166666666666666 -30.875 L-0.875 -31.516666666666666 z"/>
<path fill="#ff9065" stroke="#ff9065" d="M0 -31.75 L-0.875 -31.516666666666666 L-0.875 -31.516666666666666 L0 -31.75 z"/>
<path fill="#ff9065" stroke="#ff9065" d="M0.875 -31.516666666666666 L0 -31.75 L-0.875 -31.516666666666666 L-1.5166666666666666 -30.875 L-1.75 -30 L-1.5166666666666666 -29.125 L-0.875 -28.48333333333333 L0 -28.25 L0.875 -28.48333333333333 L1.5166666666666666 -29.125 L1.75 -30 L1.5166666666666666 -30.875 z"/>
<path fill="#ff9065" stroke="#ff9065" d="M0 -31.75 L0.875 -31.516666666666666 L1.5166666666666666 -30.875 L1.75 -30 L1.5166666666666666 -29.125 L0.875 -28.48333333333333 L0 -28.25 L-0.875 -28.48333333333333 L-1.5166666666666666 -29.125 L-1.75 -30 L-1.5166666666666666 -30.875 L-0.875 -31.516666666666666 z"/>
<path fill="#ff9065" stroke="#ff9065" d="M29.0362590948329 -15.495812060673325 L28.654827968923417 -16.568368479467257 L28.654827968923417 -16.568368479467257 L29.0362590948329 -15.495812060673325 z"/>
<path fill="#ff9065" stroke="#ff9065" d="M29.001245330152205 -14.353644922112156 L29.0362590948329 -15.495812060673325 L29.0362590948329 -15.495812060673325 L29.001245330152205 -14.353644922112156 z"/>
<path fill="#ff9065" stroke="#ff9065" d="M27.76434163319146 -12.491434106262998 L28.557598073986295 -13.308188791902063 L28.557598073986295 -13.308188791902063 L27.76434163319146 -12.491434106262998 z"/>
<path fill="#ff9065" stroke="#ff9065" d="M26.731267899691872 -12.012985571587125 L27.76434163319146 -12.491434106262998 L27.76434163319146 -12.491434106262998 L26.731267899691872 -12.012985571587125 z"/>
<path fill="#ff9065" stroke="#ff9065" d="M25.588556720529855 -11.941096183317885 L26.731267899691872 -12.012985571587125 L26.731267899691872 -12.012985571587125 L25.588556720529855 -11.941096183317885 z"/>
<path fill="#ff9065" stroke="#ff9065" d="M24.506705999182195 -12.285220223143874 L25.588556720529855 -11.941096183317885 L25.588556720529855 -11.941096183317885 L24.506705999182195 -12.285220223143874 z"/>
<path fill="#ff9065" stroke="#ff9065" d="M23.621224537481325 -12.998274160706982 L24.506705999182195 -12.285220223143874 L24.506705999182195 -12.285220223143874 L23.621224537481325 -12.998274160706982 z"/>
<path fill="#ff9065" stroke="#ff9065" d="M23.049538107199183 -13.98700013769162 L23.621224537481325 -12.998274160706982 L23.621224537481325 -12.998274160706982 L23.049538107199183 -13.98700013769162 z"/>
<path fill="#ff9065" stroke="#ff9065" d="M22.87331619837607 -15.110151585957123 L23.049538107199183 -13.98700013769162 L23.049538107199183 -13.98700013769162 L22.87331619837607 -15.110151585957123 z"/>
<path fill="#ff9065" stroke="#ff9065" d="M23.11479970336696 -16.219434261781426 L22.87331619837607 -15.110151585957123 L22.87331619837607 -15.110151585957123 L23.11479970336696 -16.219434261781426 z"/>
<path fill="#ff9065" stroke="#ff9065" d="M23.74719037898838 -17.173917869034405 L23.11479970336696 -16.219434261781426 L23.11479970336696 -16.219434261781426 L23.74719037898838 -17.173917869034405 z"/>
<path fill="#ff9065" stroke="#ff9065" d="M24.67723490966789 -17.830554381980036 L23.74719037898838 -17.173917869034405 L23.74719037898838 -17.173917869034405 L24.67723490966789 -17.830554381980036 z"/>
<path fill="#ff9065" stroke="#ff9065" d="M25.78083541261589 -18.110572108684583 L24.67723490966789 -17.830554381980036 L24.67723490966789 -17.830554381980036 L25.78083541261589 -18.110572108684583 z"/>
<path fill="#ff9065" stroke="#ff9065" d="M26.908227236561103 -17.97349883120541 L25.78083541261589 -18.110572108684583 L25.78083541261589 -18.110572108684583 L26.908227236561103 -17.97349883120541 z"/>
<path fill="#ff9065" stroke="#ff9065" d="M28.557598073986295 -13.308188791902063 L29.001245330152205 -14.353644922112156 L29.001245330152205 -14.353644922112156 L28.557598073986295 -13.308188791902063 z"/>
<path fill="#ff9065" stroke="#ff9065" d="M27.915572203724256 -17.434028856825748 L26.908227236561103 -17.97349883120541 L26.908227236561103 -17.97349883120541 L27.915572203724256 -17.434028856825748 z"/>
<path fill="#ff9065" stroke="#ff9065" d="M28.654827968923417 -16.568368479467257 L27.915572203724256 -17.434028856825748 L27.915572203724256 -17.434028856825748 L28.654827968923417 -16.568368479467257 z"/>
<path fill="#ff9065" stroke="#ff9065" d="M29.0362590948329 -15.495812060673325 L28.654827968923417 -16.568368479467257 L27.915572203724256 -17.434028856825748 L26.908227236561103 -17.97349883120541 L25.78083541261589 -18.110572108684583 L24.67723490966789 -17.830554381980036 L23.74719037898838 -17.173917869034405 L23.11479970336696 -16.219434261781426 L22.87331619837607 -15.110151585957123 L23.049538107199183 -13.98700013769162 L23.621224537481325 -12.998274160706982 L24.506705999182195 -12.285220223143874 L25.588556720529855 -11.941096183317885 L26.731267899691872 -12.012985571587125 L27.76434163319146 -12.491434106262998 L28.557598073986295 -13.308188791902063 L29.001245330152205 -14.353644922112156 z"/>
<path fill="#ff9065" stroke="#ff9065" d="M29.001245330152205 -14.353644922112156 L28.557598073986295 -13.308188791902063 L27.76434163319146 -12.491434106262998 L26.731267899691872 -12.012985571587125 L25.588556720529855 -11.941096183317885 L24.506705999182195 -12.285220223143874 L23.621224537481325 -12.998274160706982 L23.049538107199183 -13.98700013769162 L22.87331619837607 -15.110151585957123 L23.11479970336696 -16.219434261781426 L23.74719037898838 -17.173917869034405 L24.67723490966789 -17.830554381980036 L25.78083541261589 -18.110572108684583 L26.908227236561103 -17.97349883120541 L27.915572203724256 -17.434028856825748 L28.654827968923417 -16.568368479467257 L29.0362590948329 -15.495812060673325 z"/>
<path fill="#ff9065" stroke="#ff9065" d="M27.72211431742508 -15.01833148353681 L27.486126526082128 -15.892619311875693 L27.486126526082128 -15.892619311875693 L27.72211431742508 -15.01833148353681 z"/>
<path fill="#ff9065" stroke="#ff9065" d="M25.9728264890862 -13.265677025527191 L26.84711431742508 -13.501664816870143 L26.84711431742508 -13.501664816870143 L25.9728264890862 -13.265677025527191 z"/>
<path fill="#ff9065" stroke="#ff9065" d="M27.487809840917496 -14.141648168701442 L27.72211431742508 -15.01833148353681 L27.72211431742508 -15.01833148353681 L27.487809840917496 -14.141648168701442 z"/>
<path fill="#ff9065" stroke="#ff9065" d="M26.84711431742508 -13.501664816870143 L27.487809840917496 -14.141648168701442 L27.487809840917496 -14.141648168701442 L26.84711431742508 -13.501664816870143 z"/>
<path fill="#ff9065" stroke="#ff9065" d="M25.09614317425083 -13.499981502034775 L25.9728264890862 -13.265677025527191 L25.9728264890862 -13.265677025527191 L25.09614317425083 -13.499981502034775 z"/>
<path fill="#ff9065" stroke="#ff9065" d="M24.456159822419533 -14.140677025527191 L25.09614317425083 -13.499981502034775 L25.09614317425083 -13.499981502034775 L24.456159822419533 -14.140677025527191 z"/>
<path fill="#ff9065" stroke="#ff9065" d="M25.09517203107658 -16.53163152053274 L24.454476507584165 -15.891648168701442 L24.454476507584165 -15.891648168701442 L25.09517203107658 -16.53163152053274 z"/>
<path fill="#ff9065" stroke="#ff9065" d="M25.969459859415462 -16.76761931187569 L25.09517203107658 -16.53163152053274 L25.09517203107658 -16.53163152053274 L25.969459859415462 -16.76761931187569 z"/>
<path fill="#ff9065" stroke="#ff9065" d="M24.22017203107658 -15.014964853866074 L24.456159822419533 -14.140677025527191 L24.456159822419533 -14.140677025527191 L24.22017203107658 -15.014964853866074 z"/>
<path fill="#ff9065" stroke="#ff9065" d="M24.454476507584165 -15.891648168701442 L24.22017203107658 -15.014964853866074 L24.22017203107658 -15.014964853866074 L24.454476507584165 -15.891648168701442 z"/>
<path fill="#ff9065" stroke="#ff9065" d="M26.84614317425083 -16.533314835368106 L25.969459859415462 -16.76761931187569 L25.969459859415462 -16.76761931187569 L26.84614317425083 -16.533314835368106 z"/>
<path fill="#ff9065" stroke="#ff9065" d="M27.486126526082128 -15.892619311875693 L26.84614317425083 -16.533314835368106 L26.84614317425083 -16.533314835368106 L27.486126526082128 -15.892619311875693 z"/>
<path fill="#ff9065" stroke="#ff9065" d="M27.72211431742508 -15.01833148353681 L27.486126526082128 -15.892619311875693 L26.84614317425083 -16.533314835368106 L25.969459859415462 -16.76761931187569 L25.09517203107658 -16.53163152053274 L24.454476507584165 -15.891648168701442 L24.22017203107658 -15.014964853866074 L24.456159822419533 -14.140677025527191 L25.09614317425083 -13.499981502034775 L25.9728264890862 -13.265677025527191 L26.84711431742508 -13.501664816870143 L27.487809840917496 -14.141648168701442 z"/>
<path fill="#ff9065" stroke="#ff9065" d="M27.486126526082128 -15.892619311875693 L27.72211431742508 -15.01833148353681 L27.487809840917496 -14.141648168701442 L26.84711431742508 -13.501664816870143 L25.9728264890862 -13.265677025527191 L25.09614317425083 -13.499981502034775 L24.456159822419533 -14.140677025527191 L24.22017203107658 -15.014964853866074 L24.454476507584165 -15.891648168701442 L25.09517203107658 -16.53163152053274 L25.969459859415462 -16.76761931187569 L26.84614317425083 -16.533314835368106 z"/>
<path fill="#ff9065" stroke="#ff9065" d="M27.915572203724256 17.434028856825748 L28.654827968923417 16.568368479467257 L28.654827968923417 16.568368479467257 L27.915572203724256 17.434028856825748 z"/>
<path fill="#ff9065" stroke="#ff9065" d="M26.908227236561103 17.97349883120541 L27.915572203724256 17.434028856825748 L27.915572203724256 17.434028856825748 L26.908227236561103 17.97349883120541 z"/>
<path fill="#ff9065" stroke="#ff9065" d="M24.67723490966789 17.830554381980036 L25.78083541261589 18.110572108684583 L25.78083541261589 18.110572108684583 L24.67723490966789 17.830554381980036 z"/>
<path fill="#ff9065" stroke="#ff9065" d="M23.74719037898838 17.173917869034405 L24.67723490966789 17.830554381980036 L24.67723490966789 17.830554381980036 L23.74719037898838 17.173917869034405 z"/>
<path fill="#ff9065" stroke="#ff9065" d="M23.11479970336696 16.219434261781426 L23.74719037898838 17.173917869034405 L23.74719037898838 17.173917869034405 L23.11479970336696 16.219434261781426 z"/>
<path fill="#ff9065" stroke="#ff9065" d="M22.87331619837607 15.110151585957123 L23.11479970336696 16.219434261781426 L23.11479970336696 16.219434261781426 L22.87331619837607 15.110151585957123 z"/>
<path fill="#ff9065" stroke="#ff9065" d="M23.049538107199183 13.98700013769162 L22.87331619837607 15.110151585957123 L22.87331619837607 15.110151585957123 L23.049538107199183 13.98700013769162 z"/>
<path fill="#ff9065" stroke="#ff9065" d="M23.621224537481325 12.998274160706982 L23.049538107199183 13.98700013769162 L23.049538107199183 13.98700013769162 L23.621224537481325 12.998274160706982 z"/>
<path fill="#ff9065" stroke="#ff9065" d="M24.506705999182195 12.285220223143874 L23.621224537481325 12.998274160706982 L23.621224537481325 12.998274160706982 L24.506705999182195 12.285220223143874 z"/>
<path fill="#ff9065" stroke="#ff9065" d="M25.588556720529855 11.941096183317885 L24.506705999182195 12.285220223143874 L24.506705999182195 12.285220223143874 L25.588556720529855 11.941096183317885 z"/>
<path fill="#ff9065" stroke="#ff9065" d="M26.731267899691872 12.012985571587125 L25.588556720529855 11.941096183317885 L25.588556720529855 11.941096183317885 L26.731267899691872 12.012985571587125 z"/>
<path fill="#ff9065" stroke="#ff9065" d="M27.76434163319146 12.491434106262998 L26.731267899691872 12.012985571587125 L26.731267899691872 12.012985571587125 L27.76434163319146 12.491434106262998 z"/>
<path fill="#ff9065" stroke="#ff9065" d="M28.557598073986295 13.308188791902063 L27.76434163319146 12.491434106262998 L27.76434163319146 12.491434106262998 L28.557598073986295 13.308188791902063 z"/>
<path fill="#ff9065" stroke="#ff9065" d="M29.001245330152205 14.353644922112156 L28.557598073986295 13.308188791902063 L28.557598073986295 13.308188791902063 L29.001245330152205 14.353644922112156 z"/>
<path fill="#ff9065" stroke="#ff9065" d="M25.78083541261589 18.110572108684583 L26.908227236561103 17.97349883120541 L26.908227236561103 17.97349883120541 L25.78083541261589 18.110572108684583 z"/>
<path fill="#ff9065" stroke="#ff9065" d="M29.0362590948329 15.495812060673325 L29.001245330152205 14.353644922112156 L29.001245330152205 14.353644922112156 L29.0362590948329 15.495812060673325 z"/>
<path fill="#ff9065" stroke="#ff9065" d="M28.654827968923417 16.568368479467257 L29.0362590948329 15.495812060673325 L29.0362590948329 15.495812060673325 L28.654827968923417 16.568368479467257 z"/>
<path fill="#ff9065" stroke="#ff9065" d="M27.915572203724256 17.434028856825748 L28.654827968923417 16.568368479467257 L29.0362590948329 15.495812060673325 L29.001245330152205 14.353644922112156 L28.557598073986295 13.308188791902063 L27.76434163319146 12.491434106262998 L26.731267899691872 12.012985571587125 L25.588556720529855 11.941096183317885 L24.506705999182195 12.285220223143874 L23.621224537481325 12.998274160706982 L23.049538107199183 13.98700013769162 L22.87331619837607 15.110151585957123 L23.11479970336696 16.219434261781426 L23.74719037898838 17.173917869034405 L24.67723490966789 17.830554381980036 L25.78083541261589 18.110572108684583 L26.908227236561103 17.97349883120541 z"/>
<path fill="#ff9065" stroke="#ff9065" d="M26.908227236561103 17.97349883120541 L25.78083541261589 18.110572108684583 L24.67723490966789 17.830554381980036 L23.74719037898838 17.173917869034405 L23.11479970336696 16.219434261781426 L22.87331619837607 15.110151585957123 L23.049538107199183 13.98700013769162 L23.621224537481325 12.998274160706982 L24.506705999182195 12.285220223143874 L25.588556720529855 11.941096183317885 L26.731267899691872 12.012985571587125 L27.76434163319146 12.491434106262998 L28.557598073986295 13.308188791902063 L29.001245330152205 14.353644922112156 L29.0362590948329 15.495812060673325 L28.654827968923417 16.568368479467257 L27.915572203724256 17.434028856825748 z"/>
<path fill="#ff9065" stroke="#ff9065" d="M26.84614317425083 16.533314835368106 L27.486126526082128 15.892619311875693 L27.486126526082128 15.892619311875693 L26.84614317425083 16.533314835368106 z"/>
<path fill="#ff9065" stroke="#ff9065" d="M24.454476507584165 15.891648168701442 L25.09517203107658 16.53163152053274 L25.09517203107658 16.53163152053274 L24.454476507584165 15.891648168701442 z"/>
<path fill="#ff9065" stroke="#ff9065" d="M25.969459859415462 16.76761931187569 L26.84614317425083 16.533314835368106 L26.84614317425083 16.533314835368106 L25.969459859415462 16.76761931187569 z"/>
<path fill="#ff9065" stroke="#ff9065" d="M25.09517203107658 16.53163152053274 L25.969459859415462 16.76761931187569 L25.969459859415462 16.76761931187569 L25.09517203107658 16.53163152053274 z"/>
<path fill="#ff9065" stroke="#ff9065" d="M24.22017203107658 15.014964853866074 L24.454476507584165 15.891648168701442 L24.454476507584165 15.891648168701442 L24.22017203107658 15.014964853866074 z"/>
<path fill="#ff9065" stroke="#ff9065" d="M24.456159822419533 14.140677025527191 L24.22017203107658 15.014964853866074 L24.22017203107658 15.014964853866074 L24.456159822419533 14.140677025527191 z"/>
<path fill="#ff9065" stroke="#ff9065" d="M26.84711431742508 13.501664816870143 L25.9728264890862 13.265677025527191 L25.9728264890862 13.265677025527191 L26.84711431742508 13.501664816870143 z"/>
<path fill="#ff9065" stroke="#ff9065" d="M27.487809840917496 14.141648168701442 L26.84711431742508 13.501664816870143 L26.84711431742508 13.501664816870143 L27.487809840917496 14.141648168701442 z"/>
<path fill="#ff9065" stroke="#ff9065" d="M25.09614317425083 13.499981502034775 L24.456159822419533 14.140677025527191 L24.456159822419533 14.140677025527191 L25.09614317425083 13.499981502034775 z"/>
<path fill="#ff9065" stroke="#ff9065" d="M25.9728264890862 13.265677025527191 L25.09614317425083 13.499981502034775 L25.09614317425083 13.499981502034775 L25.9728264890862 13.265677025527191 z"/>
<path fill="#ff9065" stroke="#ff9065" d="M27.72211431742508 15.01833148353681 L27.487809840917496 14.141648168701442 L27.487809840917496 14.141648168701442 L27.72211431742508 15.01833148353681 z"/>
<path fill="#ff9065" stroke="#ff9065" d="M27.486126526082128 15.892619311875693 L27.72211431742508 15.01833148353681 L27.72211431742508 15.01833148353681 L27.486126526082128 15.892619311875693 z"/>
<path fill="#ff9065" stroke="#ff9065" d="M26.84614317425083 16.533314835368106 L27.486126526082128 15.892619311875693 L27.72211431742508 15.01833148353681 L27.487809840917496 14.141648168701442 L26.84711431742508 13.501664816870143 L25.9728264890862 13.265677025527191 L25.09614317425083 13.499981502034775 L24.456159822419533 14.140677025527191 L24.22017203107658 15.014964853866074 L24.454476507584165 15.891648168701442 L25.09517203107658 16.53163152053274 L25.969459859415462 16.76761931187569 z"/>
<path fill="#ff9065" stroke="#ff9065" d="M27.486126526082128 15.892619311875693 L26.84614317425083 16.533314835368106 L25.969459859415462 16.76761931187569 L25.09517203107658 16.53163152053274 L24.454476507584165 15.891648168701442 L24.22017203107658 15.014964853866074 L24.456159822419533 14.140677025527191 L25.09614317425083 13.499981502034775 L25.9728264890862 13.265677025527191 L26.84711431742508 13.501664816870143 L27.487809840917496 14.141648168701442 L27.72211431742508 15.01833148353681 z"/>
<path fill="#ff9065" stroke="#ff9065" d="M-1.1194444444444442 32.89333333333333 L0 33.099999999999994 L0 33.099999999999994 L-1.1194444444444442 32.89333333333333 z"/>
<path fill="#ff9065" stroke="#ff9065" d="M-2.0906976744186045 32.291304347826085 L-1.1194444444444442 32.89333333333333 L-1.1194444444444442 32.89333333333333 L-2.0906976744186045 32.291304347826085 z"/>
<path fill="#ff9065" stroke="#ff9065" d="M-3.0836842105263154 30.288372093023256 L-2.7736842105263158 31.38392857142857 L-2.7736842105263158 31.38392857142857 L-3.0836842105263154 30.288372093023256 z"/>
<path fill="#ff9065" stroke="#ff9065" d="M-2.9807692307692304 29.154545454545453 L-3.0836842105263154 30.288372093023256 L-3.0836842105263154 30.288372093023256 L-2.9807692307692304 29.154545454545453 z"/>
<path fill="#ff9065" stroke="#ff9065" d="M-2.471014492753623 28.129310344827584 L-2.9807692307692304 29.154545454545453 L-2.9807692307692304 29.154545454545453 L-2.471014492753623 28.129310344827584 z"/>
<path fill="#ff9065" stroke="#ff9065" d="M-1.631578947368421 27.365 L-2.471014492753623 28.129310344827584 L-2.471014492753623 28.129310344827584 L-1.631578947368421 27.365 z"/>
<path fill="#ff9065" stroke="#ff9065" d="M-0.5710526315789474 26.955357142857142 L-1.631578947368421 27.365 L-1.631578947368421 27.365 L-0.5710526315789474 26.955357142857142 z"/>
<path fill="#ff9065" stroke="#ff9065" d="M0.5710526315789474 26.955357142857142 L-0.5710526315789474 26.955357142857142 L-0.5710526315789474 26.955357142857142 L0.5710526315789474 26.955357142857142 z"/>
<path fill="#ff9065" stroke="#ff9065" d="M1.631578947368421 27.365 L0.5710526315789474 26.955357142857142 L0.5710526315789474 26.955357142857142 L1.631578947368421 27.365 z"/>
<path fill="#ff9065" stroke="#ff9065" d="M2.471014492753623 28.129310344827584 L1.631578947368421 27.365 L1.631578947368421 27.365 L2.471014492753623 28.129310344827584 z"/>
<path fill="#ff9065" stroke="#ff9065" d="M2.9807692307692304 29.154545454545453 L2.471014492753623 28.129310344827584 L2.471014492753623 28.129310344827584 L2.9807692307692304 29.154545454545453 z"/>
<path fill="#ff9065" stroke="#ff9065" d="M3.0836842105263154 30.288372093023256 L2.9807692307692304 29.154545454545453 L2.9807692307692304 29.154545454545453 L3.0836842105263154 30.288372093023256 z"/>
<path fill="#ff9065" stroke="#ff9065" d="M2.7736842105263158 31.38392857142857 L3.0836842105263154 30.288372093023256 L3.0836842105263154 30.288372093023256 L2.7736842105263158 31.38392857142857 z"/>
<path fill="#ff9065" stroke="#ff9065" d="M2.0906976744186045 32.291304347826085 L2.7736842105263158 31.38392857142857 L2.7736842105263158 31.38392857142857 L2.0906976744186045 32.291304347826085 z"/>
<path fill="#ff9065" stroke="#ff9065" d="M-2.7736842105263158 31.38392857142857 L-2.0906976744186045 32.291304347826085 L-2.0906976744186045 32.291304347826085 L-2.7736842105263158 31.38392857142857 z"/>
<path fill="#ff9065" stroke="#ff9065" d="M1.1194444444444442 32.89333333333333 L2.0906976744186045 32.291304347826085 L2.0906976744186045 32.291304347826085 L1.1194444444444442 32.89333333333333 z"/>
<path fill="#ff9065" stroke="#ff9065" d="M0 33.099999999999994 L1.1194444444444442 32.89333333333333 L1.1194444444444442 32.89333333333333 L0 33.099999999999994 z"/>
<path fill="#ff9065" stroke="#ff9065" d="M-1.1194444444444442 32.89333333333333 L0 33.099999999999994 L1.1194444444444442 32.89333333333333 L2.0906976744186045 32.291304347826085 L2.7736842105263158 31.38392857142857 L3.0836842105263154 30.288372093023256 L2.9807692307692304 29.154545454545453 L2.471014492753623 28.129310344827584 L1.631578947368421 27.365 L0.5710526315789474 26.955357142857142 L-0.5710526315789474 26.955357142857142 L-1.631578947368421 27.365 L-2.471014492753623 28.129310344827584 L-2.9807692307692304 29.154545454545453 L-3.0836842105263154 30.288372093023256 L-2.7736842105263158 31.38392857142857 L-2.0906976744186045 32.291304347826085 z"/>
<path fill="#ff9065" stroke="#ff9065" d="M-2.0906976744186045 32.291304347826085 L-2.7736842105263158 31.38392857142857 L-3.0836842105263154 30.288372093023256 L-2.9807692307692304 29.154545454545453 L-2.471014492753623 28.129310344827584 L-1.631578947368421 27.365 L-0.5710526315789474 26.955357142857142 L0.5710526315789474 26.955357142857142 L1.631578947368421 27.365 L2.471014492753623 28.129310344827584 L2.9807692307692304 29.154545454545453 L3.0836842105263154 30.288372093023256 L2.7736842105263158 31.38392857142857 L2.0906976744186045 32.291304347826085 L1.1194444444444442 32.89333333333333 L0 33.099999999999994 L-1.1194444444444442 32.89333333333333 z"/>
<path fill="#ff9065" stroke="#ff9065" d="M-0.875 31.516666666666666 L0 31.75 L0 31.75 L-0.875 31.516666666666666 z"/>
<path fill="#ff9065" stroke="#ff9065" d="M-1.5166666666666666 29.125 L-1.75 30 L-1.75 30 L-1.5166666666666666 29.125 z"/>
<path fill="#ff9065" stroke="#ff9065" d="M-1.5166666666666666 30.875 L-0.875 31.516666666666666 L-0.875 31.516666666666666 L-1.5166666666666666 30.875 z"/>
<path fill="#ff9065" stroke="#ff9065" d="M-1.75 30 L-1.5166666666666666 30.875 L-1.5166666666666666 30.875 L-1.75 30 z"/>
<path fill="#ff9065" stroke="#ff9065" d="M-0.875 28.48333333333333 L-1.5166666666666666 29.125 L-1.5166666666666666 29.125 L-0.875 28.48333333333333 z"/>
<path fill="#ff9065" stroke="#ff9065" d="M0 28.25 L-0.875 28.48333333333333 L-0.875 28.48333333333333 L0 28.25 z"/>
<path fill="#ff9065" stroke="#ff9065" d="M1.75 30 L1.5166666666666666 29.125 L1.5166666666666666 29.125 L1.75 30 z"/>
<path fill="#ff9065" stroke="#ff9065" d="M1.5166666666666666 30.875 L1.75 30 L1.75 30 L1.5166666666666666 30.875 z"/>
<path fill="#ff9065" stroke="#ff9065" d="M0.875 28.48333333333333 L0 28.25 L0 28.25 L0.875 28.48333333333333 z"/>
<path fill="#ff9065" stroke="#ff9065" d="M1.5166666666666666 29.125 L0.875 28.48333333333333 L0.875 28.48333333333333 L1.5166666666666666 29.125 z"/>
<path fill="#ff9065" stroke="#ff9065" d="M0.875 31.516666666666666 L1.5166666666666666 30.875 L1.5166666666666666 30.875 L0.875 31.516666666666666 z"/>
<path fill="#ff9065" stroke="#ff9065" d="M0 31.75 L0.875 31.516666666666666 L0.875 31.516666666666666 L0 31.75 z"/>
<path fill="#ff9065" stroke="#ff9065" d="M-0.875 31.516666666666666 L0 31.75 L0.875 31.516666666666666 L1.5166666666666666 30.875 L1.75 30 L1.5166666666666666 29.125 L0.875 28.48333333333333 L0 28.25 L-0.875 28.48333333333333 L-1.5166666666666666 29.125 L-1.75 30 L-1.5166666666666666 30.875 z"/>
<path fill="#ff9065" stroke="#ff9065" d="M0 31.75 L-0.875 31.516666666666666 L-1.5166666666666666 30.875 L-1.75 30 L-1.5166666666666666 29.125 L-0.875 28.48333333333333 L0 28.25 L0.875 28.48333333333333 L1.5166666666666666 29.125 L1.75 30 L1.5166666666666666 30.875 L0.875 31.516666666666666 z"/>
<path fill="#ff9065" stroke="#ff9065" d="M-29.0362590948329 15.495812060673325 L-28.654827968923417 16.568368479467257 L-28.654827968923417 16.568368479467257 L-29.0362590948329 15.495812060673325 z"/>
<path fill="#ff9065" stroke="#ff9065" d="M-29.001245330152205 14.353644922112156 L-29.0362590948329 15.495812060673325 L-29.0362590948329 15.495812060673325 L-29.001245330152205 14.353644922112156 z"/>
<path fill="#ff9065" stroke="#ff9065" d="M-27.76434163319146 12.491434106262998 L-28.557598073986295 13.308188791902063 L-28.557598073986295 13.308188791902063 L-27.76434163319146 12.491434106262998 z"/>
<path fill="#ff9065" stroke="#ff9065" d="M-26.731267899691872 12.012985571587125 L-27.76434163319146 12.491434106262998 L-27.76434163319146 12.491434106262998 L-26.731267899691872 12.012985571587125 z"/>
<path fill="#ff9065" stroke="#ff9065" d="M-25.588556720529855 11.941096183317885 L-26.731267899691872 12.012985571587125 L-26.731267899691872 12.012985571587125 L-25.588556720529855 11.941096183317885 z"/>
<path fill="#ff9065" stroke="#ff9065" d="M-24.506705999182195 12.285220223143874 L-25.588556720529855 11.941096183317885 L-25.588556720529855 11.941096183317885 L-24.506705999182195 12.285220223143874 z"/>
<path fill="#ff9065" stroke="#ff9065" d="M-23.621224537481325 12.998274160706982 L-24.506705999182195 12.285220223143874 L-24.506705999182195 12.285220223143874 L-23.621224537481325 12.998274160706982 z"/>
<path fill="#ff9065" stroke="#ff9065" d="M-23.049538107199183 13.98700013769162 L-23.621224537481325 12.998274160706982 L-23.621224537481325 12.998274160706982 L-23.049538107199183 13.98700013769162 z"/>
<path fill="#ff9065" stroke="#ff9065" d="M-22.87331619837607 15.110151585957123 L-23.049538107199183 13.98700013769162 L-23.049538107199183 13.98700013769162 L-22.87331619837607 15.110151585957123 z"/>
<path fill="#ff9065" stroke="#ff9065" d="M-23.11479970336696 16.219434261781426 L-22.87331619837607 15.110151585957123 L-22.87331619837607 15.110151585957123 L-23.11479970336696 16.219434261781426 z"/>
<path fill="#ff9065" stroke="#ff9065" d="M-23.74719037898838 17.173917869034405 L-23.11479970336696 16.219434261781426 L-23.11479970336696 16.219434261781426 L-23.74719037898838 17.173917869034405 z"/>
<path fill="#ff9065" stroke="#ff9065" d="M-24.67723490966789 17.830554381980036 L-23.74719037898838 17.173917869034405 L-23.74719037898838 17.173917869034405 L-24.67723490966789 17.830554381980036 z"/>
<path fill="#ff9065" stroke="#ff9065" d="M-25.78083541261589 18.110572108684583 L-24.67723490966789 17.830554381980036 L-24.67723490966789 17.830554381980036 L-25.78083541261589 18.110572108684583 z"/>
<path fill="#ff9065" stroke="#ff9065" d="M-26.908227236561103 17.97349883120541 L-25.78083541261589 18.110572108684583 L-25.78083541261589 18.110572108684583 L-26.908227236561103 17.97349883120541 z"/>
<path fill="#ff9065" stroke="#ff9065" d="M-28.557598073986295 13.308188791902063 L-29.001245330152205 14.353644922112156 L-29.001245330152205 14.353644922112156 L-28.557598073986295 13.308188791902063 z"/>
<path fill="#ff9065" stroke="#ff9065" d="M-27.915572203724256 17.434028856825748 L-26.908227236561103 17.97349883120541 L-26.908227236561103 17.97349883120541 L-27.915572203724256 17.434028856825748 z"/>
<path fill="#ff9065" stroke="#ff9065" d="M-28.654827968923417 16.568368479467257 L-27.915572203724256 17.434028856825748 L-27.915572203724256 17.434028856825748 L-28.654827968923417 16.568368479467257 z"/>
<path fill="#ff9065" stroke="#ff9065" d="M-29.0362590948329 15.495812060673325 L-28.654827968923417 16.568368479467257 L-27.915572203724256 17.434028856825748 L-26.908227236561103 17.97349883120541 L-25.78083541261589 18.110572108684583 L-24.67723490966789 17.830554381980036 L-23.74719037898838 17.173917869034405 L-23.11479970336696 16.219434261781426 L-22.87331619837607 15.110151585957123 L-23.049538107199183 13.98700013769162 L-23.621224537481325 12.998274160706982 L-24.506705999182195 12.285220223143874 L-25.588556720529855 11.941096183317885 L-26.731267899691872 12.012985571587125 L-27.76434163319146 12.491434106262998 L-28.557598073986295 13.308188791902063 L-29.001245330152205 14.353644922112156 z"/>
<path fill="#ff9065" stroke="#ff9065" d="M-29.001245330152205 14.353644922112156 L-28.557598073986295 13.308188791902063 L-27.76434163319146 12.491434106262998 L-26.731267899691872 12.012985571587125 L-25.588556720529855 11.941096183317885 L-24.506705999182195 12.285220223143874 L-23.621224537481325 12.998274160706982 L-23.049538107199183 13.98700013769162 L-22.87331619837607 15.110151585957123 L-23.11479970336696 16.219434261781426 L-23.74719037898838 17.173917869034405 L-24.67723490966789 17.830554381980036 L-25.78083541261589 18.110572108684583 L-26.908227236561103 17.97349883120541 L-27.915572203724256 17.434028856825748 L-28.654827968923417 16.568368479467257 L-29.0362590948329 15.495812060673325 z"/>
<path fill="#ff9065" stroke="#ff9065" d="M-27.72211431742508 15.01833148353681 L-27.486126526082128 15.892619311875693 L-27.486126526082128 15.892619311875693 L-27.72211431742508 15.01833148353681 z"/>
<path fill="#ff9065" stroke="#ff9065" d="M-25.9728264890862 13.265677025527191 L-26.84711431742508 13.501664816870143 L-26.84711431742508 13.501664816870143 L-25.9728264890862 13.265677025527191 z"/>
<path fill="#ff9065" stroke="#ff9065" d="M-27.487809840917496 14.141648168701442 L-27.72211431742508 15.01833148353681 L-27.72211431742508 15.01833148353681 L-27.487809840917496 14.141648168701442 z"/>
<path fill="#ff9065" stroke="#ff9065" d="M-26.84711431742508 13.501664816870143 L-27.487809840917496 14.141648168701442 L-27.487809840917496 14.141648168701442 L-26.84711431742508 13.501664816870143 z"/>
<path fill="#ff9065" stroke="#ff9065" d="M-25.09614317425083 13.499981502034775 L-25.9728264890862 13.265677025527191 L-25.9728264890862 13.265677025527191 L-25.09614317425083 13.499981502034775 z"/>
<path fill="#ff9065" stroke="#ff9065" d="M-24.456159822419533 14.140677025527191 L-25.09614317425083 13.499981502034775 L-25.09614317425083 13.499981502034775 L-24.456159822419533 14.140677025527191 z"/>
<path fill="#ff9065" stroke="#ff9065" d="M-25.09517203107658 16.53163152053274 L-24.454476507584165 15.891648168701442 L-24.454476507584165 15.891648168701442 L-25.09517203107658 16.53163152053274 z"/>
<path fill="#ff9065" stroke="#ff9065" d="M-25.969459859415462 16.76761931187569 L-25.09517203107658 16.53163152053274 L-25.09517203107658 16.53163152053274 L-25.969459859415462 16.76761931187569 z"/>
<path fill="#ff9065" stroke="#ff9065" d="M-24.22017203107658 15.014964853866074 L-24.456159822419533 14.140677025527191 L-24.456159822419533 14.140677025527191 L-24.22017203107658 15.014964853866074 z"/>
<path fill="#ff9065" stroke="#ff9065" d="M-24.454476507584165 15.891648168701442 L-24.22017203107658 15.014964853866074 L-24.22017203107658 15.014964853866074 L-24.454476507584165 15.891648168701442 z"/>
<path fill="#ff9065" stroke="#ff9065" d="M-26.84614317425083 16.533314835368106 L-25.969459859415462 16.76761931187569 L-25.969459859415462 16.76761931187569 L-26.84614317425083 16.533314835368106 z"/>
<path fill="#ff9065" stroke="#ff9065" d="M-27.486126526082128 15.892619311875693 L-26.84614317425083 16.533314835368106 L-26.84614317425083 16.533314835368106 L-27.486126526082128 15.892619311875693 z"/>
<path fill="#ff9065" stroke="#ff9065" d="M-27.72211431742508 15.01833148353681 L-27.486126526082128 15.892619311875693 L-26.84614317425083 16.533314835368106 L-25.969459859415462 16.76761931187569 L-25.09517203107658 16.53163152053274 L-24.454476507584165 15.891648168701442 L-24.22017203107658 15.014964853866074 L-24.456159822419533 14.140677025527191 L-25.09614317425083 13.499981502034775 L-25.9728264890862 13.265677025527191 L-26.84711431742508 13.501664816870143 L-27.487809840917496 14.141648168701442 z"/>
<path fill="#ff9065" stroke="#ff9065" d="M-27.486126526082128 15.892619311875693 L-27.72211431742508 15.01833148353681 L-27.487809840917496 14.141648168701442 L-26.84711431742508 13.501664816870143 L-25.9728264890862 13.265677025527191 L-25.09614317425083 13.499981502034775 L-24.456159822419533 14.140677025527191 L-24.22017203107658 15.014964853866074 L-24.454476507584165 15.891648168701442 L-25.09517203107658 16.53163152053274 L-25.969459859415462 16.76761931187569 L-26.84614317425083 16.533314835368106 z"/>
<path fill="#ff9065" stroke="#ff9065" d="M-27.915572203724256 -17.434028856825748 L-28.654827968923417 -16.568368479467257 L-28.654827968923417 -16.568368479467257 L-27.915572203724256 -17.434028856825748 z"/>
<path fill="#ff9065" stroke="#ff9065" d="M-26.908227236561103 -17.97349883120541 L-27.915572203724256 -17.434028856825748 L-27.915572203724256 -17.434028856825748 L-26.908227236561103 -17.97349883120541 z"/>
<path fill="#ff9065" stroke="#ff9065" d="M-24.67723490966789 -17.830554381980036 L-25.78083541261589 -18.110572108684583 L-25.78083541261589 -18.110572108684583 L-24.67723490966789 -17.830554381980036 z"/>
<path fill="#ff9065" stroke="#ff9065" d="M-23.74719037898838 -17.173917869034405 L-24.67723490966789 -17.830554381980036 L-24.67723490966789 -17.830554381980036 L-23.74719037898838 -17.173917869034405 z"/>
<path fill="#ff9065" stroke="#ff9065" d="M-23.11479970336696 -16.219434261781426 L-23.74719037898838 -17.173917869034405 L-23.74719037898838 -17.173917869034405 L-23.11479970336696 -16.219434261781426 z"/>
<path fill="#ff9065" stroke="#ff9065" d="M-22.87331619837607 -15.110151585957123 L-23.11479970336696 -16.219434261781426 L-23.11479970336696 -16.219434261781426 L-22.87331619837607 -15.110151585957123 z"/>
<path fill="#ff9065" stroke="#ff9065" d="M-23.049538107199183 -13.98700013769162 L-22.87331619837607 -15.110151585957123 L-22.87331619837607 -15.110151585957123 L-23.049538107199183 -13.98700013769162 z"/>
<path fill="#ff9065" stroke="#ff9065" d="M-23.621224537481325 -12.998274160706982 L-23.049538107199183 -13.98700013769162 L-23.049538107199183 -13.98700013769162 L-23.621224537481325 -12.998274160706982 z"/>
<path fill="#ff9065" stroke="#ff9065" d="M-24.506705999182195 -12.285220223143874 L-23.621224537481325 -12.998274160706982 L-23.621224537481325 -12.998274160706982 L-24.506705999182195 -12.285220223143874 z"/>
<path fill="#ff9065" stroke="#ff9065" d="M-25.588556720529855 -11.941096183317885 L-24.506705999182195 -12.285220223143874 L-24.506705999182195 -12.285220223143874 L-25.588556720529855 -11.941096183317885 z"/>
<path fill="#ff9065" stroke="#ff9065" d="M-26.731267899691872 -12.012985571587125 L-25.588556720529855 -11.941096183317885 L-25.588556720529855 -11.941096183317885 L-26.731267899691872 -12.012985571587125 z"/>
<path fill="#ff9065" stroke="#ff9065" d="M-27.76434163319146 -12.491434106262998 L-26.731267899691872 -12.012985571587125 L-26.731267899691872 -12.012985571587125 L-27.76434163319146 -12.491434106262998 z"/>
<path fill="#ff9065" stroke="#ff9065" d="M-28.557598073986295 -13.308188791902063 L-27.76434163319146 -12.491434106262998 L-27.76434163319146 -12.491434106262998 L-28.557598073986295 -13.308188791902063 z"/>
<path fill="#ff9065" stroke="#ff9065" d="M-29.001245330152205 -14.353644922112156 L-28.557598073986295 -13.308188791902063 L-28.557598073986295 -13.308188791902063 L-29.001245330152205 -14.353644922112156 z"/>
<path fill="#ff9065" stroke="#ff9065" d="M-25.78083541261589 -18.110572108684583 L-26.908227236561103 -17.97349883120541 L-26.908227236561103 -17.97349883120541 L-25.78083541261589 -18.110572108684583 z"/>
<path fill="#ff9065" stroke="#ff9065" d="M-29.0362590948329 -15.495812060673325 L-29.001245330152205 -14.353644922112156 L-29.001245330152205 -14.353644922112156 L-29.0362590948329 -15.495812060673325 z"/>
<path fill="#ff9065" stroke="#ff9065" d="M-28.654827968923417 -16.568368479467257 L-29.0362590948329 -15.495812060673325 L-29.0362590948329 -15.495812060673325 L-28.654827968923417 -16.568368479467257 z"/>
<path fill="#ff9065" stroke="#ff9065" d="M-27.915572203724256 -17.434028856825748 L-28.654827968923417 -16.568368479467257 L-29.0362590948329 -15.495812060673325 L-29.001245330152205 -14.353644922112156 L-28.557598073986295 -13.308188791902063 L-27.76434163319146 -12.491434106262998 L-26.731267899691872 -12.012985571587125 L-25.588556720529855 -11.941096183317885 L-24.506705999182195 -12.285220223143874 L-23.621224537481325 -12.998274160706982 L-23.049538107199183 -13.98700013769162 L-22.87331619837607 -15.110151585957123 L-23.11479970336696 -16.219434261781426 L-23.74719037898838 -17.173917869034405 L-24.67723490966789 -17.830554381980036 L-25.78083541261589 -18.110572108684583 L-26.908227236561103 -17.97349883120541 z"/>
<path fill="#ff9065" stroke="#ff9065" d="M-26.908227236561103 -17.97349883120541 L-25.78083541261589 -18.110572108684583 L-24.67723490966789 -17.830554381980036 L-23.74719037898838 -17.173917869034405 L-23.11479970336696 -16.219434261781426 L-22.87331619837607 -15.110151585957123 L-23.049538107199183 -13.98700013769162 L-23.621224537481325 -12.998274160706982 L-24.506705999182195 -12.285220223143874 L-25.588556720529855 -11.941096183317885 L-26.731267899691872 -12.012985571587125 L-27.76434163319146 -12.491434106262998 L-28.557598073986295 -13.308188791902063 L-29.001245330152205 -14.353644922112156 L-29.0362590948329 -15.495812060673325 L-28.654827968923417 -16.568368479467257 L-27.915572203724256 -17.434028856825748 z"/>
<path fill="#ff9065" stroke="#ff9065" d="M-26.84614317425083 -16.533314835368106 L-27.486126526082128 -15.892619311875693 L-27.486126526082128 -15.892619311875693 L-26.84614317425083 -16.533314835368106 z"/>
<path fill="#ff9065" stroke="#ff9065" d="M-24.454476507584165 -15.891648168701442 L-25.09517203107658 -16.53163152053274 L-25.09517203107658 -16.53163152053274 L-24.454476507584165 -15.891648168701442 z"/>
<path fill="#ff9065" stroke="#ff9065" d="M-25.969459859415462 -16.76761931187569 L-26.84614317425083 -16.533314835368106 L-26.84614317425083 -16.533314835368106 L-25.969459859415462 -16.76761931187569 z"/>
<path fill="#ff9065" stroke="#ff9065" d="M-25.09517203107658 -16.53163152053274 L-25.969459859415462 -16.76761931187569 L-25.969459859415462 -16.76761931187569 L-25.09517203107658 -16.53163152053274 z"/>
<path fill="#ff9065" stroke="#ff9065" d="M-24.22017203107658 -15.014964853866074 L-24.454476507584165 -15.891648168701442 L-24.454476507584165 -15.891648168701442 L-24.22017203107658 -15.014964853866074 z"/>
<path fill="#ff9065" stroke="#ff9065" d="M-24.456159822419533 -14.140677025527191 L-24.22017203107658 -15.014964853866074 L-24.22017203107658 -15.014964853866074 L-24.456159822419533 -14.140677025527191 z"/>
<path fill="#ff9065" stroke="#ff9065" d="M-26.84711431742508 -13.501664816870143 L-25.9728264890862 -13.265677025527191 L-25.9728264890862 -13.265677025527191 L-26.84711431742508 -13.501664816870143 z"/>
<path fill="#ff9065" stroke="#ff9065" d="M-27.487809840917496 -14.141648168701442 L-26.84711431742508 -13.501664816870143 L-26.84711431742508 -13.501664816870143 L-27.487809840917496 -14.141648168701442 z"/>
<path fill="#ff9065" stroke="#ff9065" d="M-25.09614317425083 -13.499981502034775 L-24.456159822419533 -14.140677025527191 L-24.456159822419533 -14.140677025527191 L-25.09614317425083 -13.499981502034775 z"/>
<path fill="#ff9065" stroke="#ff9065" d="M-25.9728264890862 -13.265677025527191 L-25.09614317425083 -13.499981502034775 L-25.09614317425083 -13.499981502034775 L-25.9728264890862 -13.265677025527191 z"/>
<path fill="#ff9065" stroke="#ff9065" d="M-27.72211431742508 -15.01833148353681 L-27.487809840917496 -14.141648168701442 L-27.487809840917496 -14.141648168701442 L-27.72211431742508 -15.01833148353681 z"/>
<path fill="#ff9065" stroke="#ff9065" d="M-27.486126526082128 -15.892619311875693 L-27.72211431742508 -15.01833148353681 L-27.72211431742508 -15.01833148353681 L-27.486126526082128 -15.892619311875693 z"/>
<path fill="#ff9065" stroke="#ff9065" d="M-26.84614317425083 -16.533314835368106 L-27.486126526082128 -15.892619311875693 L-27.72211431742508 -15.01833148353681 L-27.487809840917496 -14.141648168701442 L-26.84711431742508 -13.501664816870143 L-25.9728264890862 -13.265677025527191 L-25.09614317425083 -13.499981502034775 L-24.456159822419533 -14.140677025527191 L-24.22017203107658 -15.014964853866074 L-24.454476507584165 -15.891648168701442 L-25.09517203107658 -16.53163152053274 L-25.969459859415462 -16.76761931187569 z"/>
<path fill="#ff9065" stroke="#ff9065" d="M-27.486126526082128 -15.892619311875693 L-26.84614317425083 -16.533314835368106 L-25.969459859415462 -16.76761931187569 L-25.09517203107658 -16.53163152053274 L-24.454476507584165 -15.891648168701442 L-24.22017203107658 -15.014964853866074 L-24.456159822419533 -14.140677025527191 L-25.09614317425083 -13.499981502034775 L-25.9728264890862 -13.265677025527191 L-26.84711431742508 -13.501664816870143 L-27.487809840917496 -14.141648168701442 L-27.72211431742508 -15.01833148353681 z"/>
</svg>